  0
SECTION
  2
HEADER
  9
$ACADVER
  1
AC1024
  9
$ACADMAINTVER
 70
6
  9
$DWGCODEPAGE
  3
ANSI_1252
  9
$LASTSAVEDBY
  1
ezdxf
  9
$INSBASE
 10
0.0
 20
0.0
 30
0.0
  9
$EXTMIN
 10
1e+20
 20
1e+20
 30
1e+20
  9
$EXTMAX
 10
-1e+20
 20
-1e+20
 30
-1e+20
  9
$LIMMIN
 10
0.0
 20
0.0
  9
$LIMMAX
 10
420.0
 20
297.0
  9
$ORTHOMODE
 70
0
  9
$REGENMODE
 70
1
  9
$FILLMODE
 70
1
  9
$QTEXTMODE
 70
0
  9
$MIRRTEXT
 70
1
  9
$LTSCALE
 40
1.0
  9
$ATTMODE
 70
1
  9
$TEXTSIZE
 40
2.5
  9
$TRACEWID
 40
1.0
  9
$TEXTSTYLE
  7
Standard
  9
$CLAYER
  8
0
  9
$CELTYPE
  6
ByLayer
  9
$CECOLOR
 62
256
  9
$CELTSCALE
 40
1.0
  9
$DISPSILH
 70
0
  9
$DIMSCALE
 40
1.0
  9
$DIMASZ
 40
2.5
  9
$DIMEXO
 40
0.625
  9
$DIMDLI
 40
3.75
  9
$DIMRND
 40
0.0
  9
$DIMDLE
 40
0.0
  9
$DIMEXE
 40
1.25
  9
$DIMTP
 40
0.0
  9
$DIMTM
 40
0.0
  9
$DIMTXT
 40
2.5
  9
$DIMCEN
 40
2.5
  9
$DIMTSZ
 40
0.0
  9
$DIMTOL
 70
0
  9
$DIMLIM
 70
0
  9
$DIMTIH
 70
0
  9
$DIMTOH
 70
0
  9
$DIMSE1
 70
0
  9
$DIMSE2
 70
0
  9
$DIMTAD
 70
1
  9
$DIMZIN
 70
8
  9
$DIMBLK
  1

  9
$DIMASO
 70
1
  9
$DIMSHO
 70
1
  9
$DIMPOST
  1

  9
$DIMAPOST
  1

  9
$DIMALT
 70
0
  9
$DIMALTD
 70
3
  9
$DIMALTF
 40
0.03937007874
  9
$DIMLFAC
 40
1.0
  9
$DIMTOFL
 70
1
  9
$DIMTVP
 40
0.0
  9
$DIMTIX
 70
0
  9
$DIMSOXD
 70
0
  9
$DIMSAH
 70
0
  9
$DIMBLK1
  1

  9
$DIMBLK2
  1

  9
$DIMSTYLE
  2
ISO-25
  9
$DIMCLRD
 70
0
  9
$DIMCLRE
 70
0
  9
$DIMCLRT
 70
0
  9
$DIMTFAC
 40
1.0
  9
$DIMGAP
 40
0.625
  9
$DIMJUST
 70
0
  9
$DIMSD1
 70
0
  9
$DIMSD2
 70
0
  9
$DIMTOLJ
 70
0
  9
$DIMTZIN
 70
8
  9
$DIMALTZ
 70
0
  9
$DIMALTTZ
 70
0
  9
$DIMUPT
 70
0
  9
$DIMDEC
 70
2
  9
$DIMTDEC
 70
2
  9
$DIMALTU
 70
2
  9
$DIMALTTD
 70
3
  9
$DIMTXSTY
  7
Standard
  9
$DIMAUNIT
 70
0
  9
$DIMADEC
 70
0
  9
$DIMALTRND
 40
0.0
  9
$DIMAZIN
 70
0
  9
$DIMDSEP
 70
44
  9
$DIMATFIT
 70
3
  9
$DIMFRAC
 70
0
  9
$DIMLDRBLK
  1

  9
$DIMLUNIT
 70
2
  9
$DIMLWD
 70
-2
  9
$DIMLWE
 70
-2
  9
$DIMTMOVE
 70
0
  9
$DIMFXL
 40
1.0
  9
$DIMFXLON
 70
0
  9
$DIMJOGANG
 40
0.785398163397
  9
$DIMTFILL
 70
0
  9
$DIMTFILLCLR
 70
0
  9
$DIMARCSYM
 70
0
  9
$DIMLTYPE
  6

  9
$DIMLTEX1
  6

  9
$DIMLTEX2
  6

  9
$DIMTXTDIRECTION
 70
0
  9
$LUNITS
 70
2
  9
$LUPREC
 70
4
  9
$SKETCHINC
 40
1.0
  9
$FILLETRAD
 40
10.0
  9
$AUNITS
 70
0
  9
$AUPREC
 70
2
  9
$MENU
  1
.
  9
$ELEVATION
 40
0.0
  9
$PELEVATION
 40
0.0
  9
$THICKNESS
 40
0.0
  9
$LIMCHECK
 70
0
  9
$CHAMFERA
 40
0.0
  9
$CHAMFERB
 40
0.0
  9
$CHAMFERC
 40
0.0
  9
$CHAMFERD
 40
0.0
  9
$SKPOLY
 70
0
  9
$TDCREATE
 40
2461253.5353472224
  9
$TDUCREATE
 40
2458532.153996898
  9
$TDUPDATE
 40
2461253.5353472224
  9
$TDUUPDATE
 40
2458532.1544311
  9
$TDINDWG
 40
0.0
  9
$TDUSRTIMER
 40
0.0
  9
$USRTIMER
 70
1
  9
$ANGBASE
 50
0.0
  9
$ANGDIR
 70
0
  9
$PDMODE
 70
0
  9
$PDSIZE
 40
0.0
  9
$PLINEWID
 40
0.0
  9
$SPLFRAME
 70
0
  9
$SPLINETYPE
 70
6
  9
$SPLINESEGS
 70
8
  9
$HANDSEED
  5
29E
  9
$SURFTAB1
 70
6
  9
$SURFTAB2
 70
6
  9
$SURFTYPE
 70
6
  9
$SURFU
 70
6
  9
$SURFV
 70
6
  9
$UCSBASE
  2

  9
$UCSNAME
  2

  9
$UCSORG
 10
0.0
 20
0.0
 30
0.0
  9
$UCSXDIR
 10
1.0
 20
0.0
 30
0.0
  9
$UCSYDIR
 10
0.0
 20
1.0
 30
0.0
  9
$UCSORTHOREF
  2

  9
$UCSORTHOVIEW
 70
0
  9
$UCSORGTOP
 10
0.0
 20
0.0
 30
0.0
  9
$UCSORGBOTTOM
 10
0.0
 20
0.0
 30
0.0
  9
$UCSORGLEFT
 10
0.0
 20
0.0
 30
0.0
  9
$UCSORGRIGHT
 10
0.0
 20
0.0
 30
0.0
  9
$UCSORGFRONT
 10
0.0
 20
0.0
 30
0.0
  9
$UCSORGBACK
 10
0.0
 20
0.0
 30
0.0
  9
$PUCSBASE
  2

  9
$PUCSNAME
  2

  9
$PUCSORG
 10
0.0
 20
0.0
 30
0.0
  9
$PUCSXDIR
 10
1.0
 20
0.0
 30
0.0
  9
$PUCSYDIR
 10
0.0
 20
1.0
 30
0.0
  9
$PUCSORTHOREF
  2

  9
$PUCSORTHOVIEW
 70
0
  9
$PUCSORGTOP
 10
0.0
 20
0.0
 30
0.0
  9
$PUCSORGBOTTOM
 10
0.0
 20
0.0
 30
0.0
  9
$PUCSORGLEFT
 10
0.0
 20
0.0
 30
0.0
  9
$PUCSORGRIGHT
 10
0.0
 20
0.0
 30
0.0
  9
$PUCSORGFRONT
 10
0.0
 20
0.0
 30
0.0
  9
$PUCSORGBACK
 10
0.0
 20
0.0
 30
0.0
  9
$USERI1
 70
0
  9
$USERI2
 70
0
  9
$USERI3
 70
0
  9
$USERI4
 70
0
  9
$USERI5
 70
0
  9
$USERR1
 40
0.0
  9
$USERR2
 40
0.0
  9
$USERR3
 40
0.0
  9
$USERR4
 40
0.0
  9
$USERR5
 40
0.0
  9
$WORLDVIEW
 70
1
  9
$SHADEDGE
 70
3
  9
$SHADEDIF
 70
70
  9
$TILEMODE
 70
1
  9
$MAXACTVP
 70
64
  9
$PINSBASE
 10
0.0
 20
0.0
 30
0.0
  9
$PLIMCHECK
 70
0
  9
$PEXTMIN
 10
1e+20
 20
1e+20
 30
1e+20
  9
$PEXTMAX
 10
-1e+20
 20
-1e+20
 30
-1e+20
  9
$PLIMMIN
 10
0.0
 20
0.0
  9
$PLIMMAX
 10
420.0
 20
297.0
  9
$UNITMODE
 70
0
  9
$VISRETAIN
 70
1
  9
$PLINEGEN
 70
0
  9
$PSLTSCALE
 70
1
  9
$TREEDEPTH
 70
3020
  9
$CMLSTYLE
  2
Standard
  9
$CMLJUST
 70
0
  9
$CMLSCALE
 40
20.0
  9
$PROXYGRAPHICS
 70
1
  9
$MEASUREMENT
 70
1
  9
$CELWEIGHT
370
-1
  9
$ENDCAPS
280
0
  9
$JOINSTYLE
280
0
  9
$LWDISPLAY
290
0
  9
$INSUNITS
 70
6
  9
$HYPERLINKBASE
  1

  9
$STYLESHEET
  1

  9
$XEDIT
290
1
  9
$CEPSNTYPE
380
0
  9
$PSTYLEMODE
290
1
  9
$FINGERPRINTGUID
  2
{4C7B0255-37D3-4C82-BAC3-0F29F252FEF5}
  9
$VERSIONGUID
  2
{DA80825C-416B-4444-92F5-38E56B248EAE}
  9
$EXTNAMES
290
1
  9
$PSVPSCALE
 40
0.0
  9
$OLESTARTUP
290
0
  9
$SORTENTS
280
127
  9
$INDEXCTL
280
0
  9
$HIDETEXT
280
1
  9
$XCLIPFRAME
280
1
  9
$HALOGAP
280
0
  9
$OBSCOLOR
 70
257
  9
$OBSLTYPE
280
0
  9
$INTERSECTIONDISPLAY
280
0
  9
$INTERSECTIONCOLOR
 70
257
  9
$DIMASSOC
280
2
  9
$PROJECTNAME
  1

  9
$CAMERADISPLAY
290
0
  9
$LENSLENGTH
 40
50.0
  9
$CAMERAHEIGHT
 40
0.0
  9
$STEPSPERSEC
 40
24.0
  9
$STEPSIZE
 40
100.0
  9
$3DDWFPREC
 40
2.0
  9
$PSOLWIDTH
 40
0.005
  9
$PSOLHEIGHT
 40
0.08
  9
$LOFTANG1
 40
1.570796326795
  9
$LOFTANG2
 40
1.570796326795
  9
$LOFTMAG1
 40
0.0
  9
$LOFTMAG2
 40
0.0
  9
$LOFTPARAM
 70
7
  9
$LOFTNORMALS
280
1
  9
$LATITUDE
 40
37.795
  9
$LONGITUDE
 40
-122.394
  9
$NORTHDIRECTION
 40
0.0
  9
$TIMEZONE
 70
-8000
  9
$LIGHTGLYPHDISPLAY
280
1
  9
$TILEMODELIGHTSYNCH
280
1
  9
$CMATERIAL
347
20
  9
$SOLIDHIST
280
0
  9
$SHOWHIST
280
1
  9
$DWFFRAME
280
2
  9
$DGNFRAME
280
2
  9
$REALWORLDSCALE
290
1
  9
$INTERFERECOLOR
 62
256
  9
$CSHADOW
280
0
  9
$SHADOWPLANELOCATION
 40
0.0
  0
ENDSEC
  0
SECTION
  2
CLASSES
  0
CLASS
  1
ACDBDICTIONARYWDFLT
  2
AcDbDictionaryWithDefault
  3
ObjectDBX Classes
 90
0
 91
0
280
0
281
0
  0
CLASS
  1
SUN
  2
AcDbSun
  3
SCENEOE
 90
1153
 91
0
280
0
281
0
  0
CLASS
  1
VISUALSTYLE
  2
AcDbVisualStyle
  3
ObjectDBX Classes
 90
4095
 91
0
280
0
281
0
  0
CLASS
  1
MATERIAL
  2
AcDbMaterial
  3
ObjectDBX Classes
 90
1153
 91
0
280
0
281
0
  0
CLASS
  1
SCALE
  2
AcDbScale
  3
ObjectDBX Classes
 90
1153
 91
0
280
0
281
0
  0
CLASS
  1
TABLESTYLE
  2
AcDbTableStyle
  3
ObjectDBX Classes
 90
4095
 91
0
280
0
281
0
  0
CLASS
  1
MLEADERSTYLE
  2
AcDbMLeaderStyle
  3
ACDB_MLEADERSTYLE_CLASS
 90
4095
 91
0
280
0
281
0
  0
CLASS
  1
DICTIONARYVAR
  2
AcDbDictionaryVar
  3
ObjectDBX Classes
 90
0
 91
0
280
0
281
0
  0
CLASS
  1
CELLSTYLEMAP
  2
AcDbCellStyleMap
  3
ObjectDBX Classes
 90
1152
 91
0
280
0
281
0
  0
CLASS
  1
MENTALRAYRENDERSETTINGS
  2
AcDbMentalRayRenderSettings
  3
SCENEOE
 90
1024
 91
0
280
0
281
0
  0
CLASS
  1
ACDBDETAILVIEWSTYLE
  2
AcDbDetailViewStyle
  3
ObjectDBX Classes
 90
1025
 91
0
280
0
281
0
  0
CLASS
  1
ACDBSECTIONVIEWSTYLE
  2
AcDbSectionViewStyle
  3
ObjectDBX Classes
 90
1025
 91
0
280
0
281
0
  0
CLASS
  1
RASTERVARIABLES
  2
AcDbRasterVariables
  3
ISM
 90
0
 91
0
280
0
281
0
  0
CLASS
  1
ACDBPLACEHOLDER
  2
AcDbPlaceHolder
  3
ObjectDBX Classes
 90
0
 91
0
280
0
281
0
  0
CLASS
  1
LAYOUT
  2
AcDbLayout
  3
ObjectDBX Classes
 90
0
 91
0
280
0
281
0
  0
ENDSEC
  0
SECTION
  2
TABLES
  0
TABLE
  2
VPORT
  5
8
330
0
100
AcDbSymbolTable
 70
1
  0
VPORT
  5
23
330
8
100
AcDbSymbolTableRecord
100
AcDbViewportTableRecord
  2
*Active
 70
0
 10
0.0
 20
0.0
 11
1.0
 21
1.0
 12
0.0
 22
0.0
 13
0.0
 23
0.0
 14
0.5
 24
0.5
 15
0.5
 25
0.5
 16
0.0
 26
0.0
 36
1.0
 17
0.0
 27
0.0
 37
0.0
 40
1000.0
 41
1.34
 42
50.0
 43
0.0
 44
0.0
 50
0.0
 51
0.0
 71
0
 72
1000
 73
1
 74
3
 75
0
 76
0
 77
0
 78
0
281
0
 65
0
146
0.0
  0
ENDTAB
  0
TABLE
  2
LTYPE
  5
2
330
0
100
AcDbSymbolTable
 70
3
  0
LTYPE
  5
24
330
2
100
AcDbSymbolTableRecord
100
AcDbLinetypeTableRecord
  2
ByBlock
 70
0
  3

 72
65
 73
0
 40
0.0
  0
LTYPE
  5
25
330
2
100
AcDbSymbolTableRecord
100
AcDbLinetypeTableRecord
  2
ByLayer
 70
0
  3

 72
65
 73
0
 40
0.0
  0
LTYPE
  5
26
330
2
100
AcDbSymbolTableRecord
100
AcDbLinetypeTableRecord
  2
Continuous
 70
0
  3

 72
65
 73
0
 40
0.0
  0
ENDTAB
  0
TABLE
  2
LAYER
  5
1
330
0
100
AcDbSymbolTable
 70
10
  0
LAYER
  5
27
330
1
100
AcDbSymbolTableRecord
100
AcDbLayerTableRecord
  2
0
 70
0
 62
7
  6
Continuous
370
-3
390
13
347
21
  0
LAYER
  5
28
330
1
100
AcDbSymbolTableRecord
100
AcDbLayerTableRecord
  2
Defpoints
 70
0
 62
7
  6
Continuous
290
0
370
-3
390
13
347
21
  0
LAYER
  5
2F
330
1
100
AcDbSymbolTableRecord
100
AcDbLayerTableRecord
  2
GELAENDE
 70
0
 62
3
  6
Continuous
370
-3
390
13
347
21
  0
LAYER
  5
30
330
1
100
AcDbSymbolTableRecord
100
AcDbLayerTableRecord
  2
MAUER_LINKS
 70
0
 62
1
  6
Continuous
370
-3
390
13
347
21
  0
LAYER
  5
31
330
1
100
AcDbSymbolTableRecord
100
AcDbLayerTableRecord
  2
MAUER_RECHTS
 70
0
 62
1
  6
Continuous
370
-3
390
13
347
21
  0
LAYER
  5
32
330
1
100
AcDbSymbolTableRecord
100
AcDbLayerTableRecord
  2
PFEILER_MITTE
 70
0
 62
2
  6
Continuous
370
-3
390
13
347
21
  0
LAYER
  5
33
330
1
100
AcDbSymbolTableRecord
100
AcDbLayerTableRecord
  2
PFEILER_RAND
 70
0
 62
2
  6
Continuous
370
-3
390
13
347
21
  0
LAYER
  5
34
330
1
100
AcDbSymbolTableRecord
100
AcDbLayerTableRecord
  2
WEHRKOERPER
 70
0
 62
5
  6
Continuous
370
-3
390
13
347
21
  0
LAYER
  5
35
330
1
100
AcDbSymbolTableRecord
100
AcDbLayerTableRecord
  2
QS_OBERWASSER
 70
0
 62
4
  6
Continuous
370
-3
390
13
347
21
  0
LAYER
  5
36
330
1
100
AcDbSymbolTableRecord
100
AcDbLayerTableRecord
  2
QS_UNTERWASSER
 70
0
 62
4
  6
Continuous
370
-3
390
13
347
21
  0
ENDTAB
  0
TABLE
  2
STYLE
  5
5
330
0
100
AcDbSymbolTable
 70
1
  0
STYLE
  5
29
330
5
100
AcDbSymbolTableRecord
100
AcDbTextStyleTableRecord
  2
Standard
 70
0
 40
0.0
 41
1.0
 50
0.0
 71
0
 42
2.5
  3
txt
  4

  0
ENDTAB
  0
TABLE
  2
VIEW
  5
7
330
0
100
AcDbSymbolTable
 70
0
  0
ENDTAB
  0
TABLE
  2
UCS
  5
6
330
0
100
AcDbSymbolTable
 70
0
  0
ENDTAB
  0
TABLE
  2
APPID
  5
3
330
0
100
AcDbSymbolTable
 70
3
  0
APPID
  5
2A
330
3
100
AcDbSymbolTableRecord
100
AcDbRegAppTableRecord
  2
ACAD
 70
0
  0
APPID
  5
29B
330
3
100
AcDbSymbolTableRecord
100
AcDbRegAppTableRecord
  2
HATCHBACKGROUNDCOLOR
 70
0
  0
APPID
  5
29C
330
3
100
AcDbSymbolTableRecord
100
AcDbRegAppTableRecord
  2
EZDXF
 70
0
  0
ENDTAB
  0
TABLE
  2
DIMSTYLE
  5
4
330
0
100
AcDbSymbolTable
 70
1
100
AcDbDimStyleTable
  0
DIMSTYLE
105
2B
330
4
100
AcDbSymbolTableRecord
100
AcDbDimStyleTableRecord
  2
Standard
 70
0
 40
1.0
 41
2.5
 42
0.625
 43
3.75
 44
1.25
 45
0.0
 46
0.0
 47
0.0
 48
0.0
 49
2.5
140
2.5
141
2.5
142
0.0
143
0.03937007874
144
1.0
145
0.0
146
1.0
147
0.625
148
0.0
 69
0
 70
0
 71
0
 72
0
 73
0
 74
0
 75
0
 76
0
 77
1
 78
8
 79
3
170
0
171
3
172
1
173
0
174
0
175
0
176
0
177
0
178
0
179
2
271
2
272
2
273
2
274
3
275
0
276
0
277
2
278
44
279
0
280
0
281
0
282
0
283
0
284
8
285
0
286
0
288
0
289
3
290
0
371
-2
372
-2
  0
ENDTAB
  0
TABLE
  2
BLOCK_RECORD
  5
9
330
0
100
AcDbSymbolTable
 70
2
  0
BLOCK_RECORD
  5
17
330
9
100
AcDbSymbolTableRecord
100
AcDbBlockTableRecord
  2
*Model_Space
340
1A
 70
0
280
1
281
0
  0
BLOCK_RECORD
  5
1B
330
9
100
AcDbSymbolTableRecord
100
AcDbBlockTableRecord
  2
*Paper_Space
340
1E
 70
0
280
1
281
0
  0
ENDTAB
  0
ENDSEC
  0
SECTION
  2
BLOCKS
  0
BLOCK
  5
18
330
17
100
AcDbEntity
  8
0
100
AcDbBlockBegin
  2
*Model_Space
 70
0
 10
0.0
 20
0.0
 30
0.0
  3
*Model_Space
  1

  0
ENDBLK
  5
19
330
17
100
AcDbEntity
  8
0
100
AcDbBlockEnd
  0
BLOCK
  5
1C
330
1B
100
AcDbEntity
  8
0
100
AcDbBlockBegin
  2
*Paper_Space
 70
0
 10
0.0
 20
0.0
 30
0.0
  3
*Paper_Space
  1

  0
ENDBLK
  5
1D
330
1B
100
AcDbEntity
  8
0
100
AcDbBlockEnd
  0
ENDSEC
  0
SECTION
  2
ENTITIES
  0
3DFACE
  5
37
330
17
100
AcDbEntity
  8
GELAENDE
100
AcDbFace
 10
0.0
 20
0.0
 30
100.24999998734262
 11
2.0
 21
0.0
 31
100.30713919755226
 12
2.0
 22
2.0
 32
100.29700313174516
 13
0.0
 23
2.0
 33
100.23986392153552
  0
3DFACE
  5
38
330
17
100
AcDbEntity
  8
GELAENDE
100
AcDbFace
 10
0.0
 20
2.0
 30
100.23986392153552
 11
2.0
 21
2.0
 31
100.29700313174516
 12
2.0
 22
4.0
 32
100.2673599370148
 13
0.0
 23
4.0
 33
100.21022072680516
  0
3DFACE
  5
39
330
17
100
AcDbEntity
  8
GELAENDE
100
AcDbFace
 10
0.0
 20
4.0
 30
100.21022072680516
 11
2.0
 21
4.0
 31
100.2673599370148
 12
2.0
 22
6.0
 32
100.21917665243062
 13
0.0
 23
6.0
 33
100.16203744222098
  0
3DFACE
  5
3A
330
17
100
AcDbEntity
  8
GELAENDE
100
AcDbFace
 10
0.0
 20
6.0
 30
100.16203744222098
 11
2.0
 21
6.0
 31
100.21917665243062
 12
2.0
 22
8.0
 32
100.13890962037343
 13
0.0
 23
8.0
 33
100.08177041016378
  0
3DFACE
  5
3B
330
17
100
AcDbEntity
  8
GELAENDE
100
AcDbFace
 10
0.0
 20
8.0
 30
100.08177041016378
 11
2.0
 21
8.0
 31
100.13890962037343
 12
2.0
 22
10.0
 32
99.93666855455766
 13
0.0
 23
10.0
 33
99.87952934434801
  0
3DFACE
  5
3C
330
17
100
AcDbEntity
  8
GELAENDE
100
AcDbFace
 10
0.0
 20
10.0
 30
99.87952934434801
 11
2.0
 21
10.0
 31
99.93666855455766
 12
2.0
 22
12.0
 32
99.44580711125921
 13
0.0
 23
12.0
 33
99.38866790104957
  0
3DFACE
  5
3D
330
17
100
AcDbEntity
  8
GELAENDE
100
AcDbFace
 10
0.0
 20
12.0
 30
99.38866790104957
 11
2.0
 21
12.0
 31
99.44580711125921
 12
2.0
 22
14.0
 32
98.84716996431558
 13
0.0
 23
14.0
 33
98.79003075410594
  0
3DFACE
  5
3E
330
17
100
AcDbEntity
  8
GELAENDE
100
AcDbFace
 10
0.0
 20
14.0
 30
98.79003075410594
 11
2.0
 21
14.0
 31
98.84716996431558
 12
2.0
 22
16.0
 32
98.78731780699604
 13
0.0
 23
16.0
 33
98.7301785967864
  0
3DFACE
  5
3F
330
17
100
AcDbEntity
  8
GELAENDE
100
AcDbFace
 10
0.0
 20
16.0
 30
98.7301785967864
 11
2.0
 21
16.0
 31
98.78731780699604
 12
2.0
 22
18.0
 32
99.27110338265443
 13
0.0
 23
18.0
 33
99.21396417244479
  0
3DFACE
  5
40
330
17
100
AcDbEntity
  8
GELAENDE
100
AcDbFace
 10
0.0
 20
18.0
 30
99.21396417244479
 11
2.0
 21
18.0
 31
99.27110338265443
 12
2.0
 22
20.0
 32
99.66127802993807
 13
0.0
 23
20.0
 33
99.60413881972843
  0
3DFACE
  5
41
330
17
100
AcDbEntity
  8
GELAENDE
100
AcDbFace
 10
0.0
 20
20.0
 30
99.60413881972843
 11
2.0
 21
20.0
 31
99.66127802993807
 12
2.0
 22
22.0
 32
99.78516064340977
 13
0.0
 23
22.0
 33
99.72802143320013
  0
3DFACE
  5
42
330
17
100
AcDbEntity
  8
GELAENDE
100
AcDbFace
 10
0.0
 20
22.0
 30
99.72802143320013
 11
2.0
 21
22.0
 31
99.78516064340977
 12
2.0
 22
24.0
 32
99.81575077903962
 13
0.0
 23
24.0
 33
99.75861156882998
  0
3DFACE
  5
43
330
17
100
AcDbEntity
  8
GELAENDE
100
AcDbFace
 10
0.0
 20
24.0
 30
99.75861156882998
 11
2.0
 21
24.0
 31
99.81575077903962
 12
2.0
 22
26.0
 32
99.84696646813983
 13
0.0
 23
26.0
 33
99.78982725793018
  0
3DFACE
  5
44
330
17
100
AcDbEntity
  8
GELAENDE
100
AcDbFace
 10
0.0
 20
26.0
 30
99.78982725793018
 11
2.0
 21
26.0
 31
99.84696646813983
 12
2.0
 22
28.0
 32
99.89372708125128
 13
0.0
 23
28.0
 33
99.83658787104164
  0
3DFACE
  5
45
330
17
100
AcDbEntity
  8
GELAENDE
100
AcDbFace
 10
0.0
 20
28.0
 30
99.83658787104164
 11
2.0
 21
28.0
 31
99.89372708125128
 12
2.0
 22
30.0
 32
99.95367771891648
 13
0.0
 23
30.0
 33
99.89653850870684
  0
3DFACE
  5
46
330
17
100
AcDbEntity
  8
GELAENDE
100
AcDbFace
 10
2.0
 20
0.0
 30
100.30713919755226
 11
4.0
 21
0.0
 31
100.36048471457754
 12
4.0
 22
2.0
 32
100.35034864877044
 13
2.0
 23
2.0
 33
100.29700313174516
  0
3DFACE
  5
47
330
17
100
AcDbEntity
  8
GELAENDE
100
AcDbFace
 10
2.0
 20
2.0
 30
100.29700313174516
 11
4.0
 21
2.0
 31
100.35034864877044
 12
4.0
 22
4.0
 32
100.32070545404008
 13
2.0
 23
4.0
 33
100.2673599370148
  0
3DFACE
  5
48
330
17
100
AcDbEntity
  8
GELAENDE
100
AcDbFace
 10
2.0
 20
4.0
 30
100.2673599370148
 11
4.0
 21
4.0
 31
100.32070545404008
 12
4.0
 22
6.0
 32
100.2725221694559
 13
2.0
 23
6.0
 33
100.21917665243062
  0
3DFACE
  5
49
330
17
100
AcDbEntity
  8
GELAENDE
100
AcDbFace
 10
2.0
 20
6.0
 30
100.21917665243062
 11
4.0
 21
6.0
 31
100.2725221694559
 12
4.0
 22
8.0
 32
100.1922551373987
 13
2.0
 23
8.0
 33
100.13890962037343
  0
3DFACE
  5
4A
330
17
100
AcDbEntity
  8
GELAENDE
100
AcDbFace
 10
2.0
 20
8.0
 30
100.13890962037343
 11
4.0
 21
8.0
 31
100.1922551373987
 12
4.0
 22
10.0
 32
99.99001407158293
 13
2.0
 23
10.0
 33
99.93666855455766
  0
3DFACE
  5
4B
330
17
100
AcDbEntity
  8
GELAENDE
100
AcDbFace
 10
2.0
 20
10.0
 30
99.93666855455766
 11
4.0
 21
10.0
 31
99.99001407158293
 12
4.0
 22
12.0
 32
99.49915262828449
 13
2.0
 23
12.0
 33
99.44580711125921
  0
3DFACE
  5
4C
330
17
100
AcDbEntity
  8
GELAENDE
100
AcDbFace
 10
2.0
 20
12.0
 30
99.44580711125921
 11
4.0
 21
12.0
 31
99.49915262828449
 12
4.0
 22
14.0
 32
98.90051548134086
 13
2.0
 23
14.0
 33
98.84716996431558
  0
3DFACE
  5
4D
330
17
100
AcDbEntity
  8
GELAENDE
100
AcDbFace
 10
2.0
 20
14.0
 30
98.84716996431558
 11
4.0
 21
14.0
 31
98.90051548134086
 12
4.0
 22
16.0
 32
98.84066332402132
 13
2.0
 23
16.0
 33
98.78731780699604
  0
3DFACE
  5
4E
330
17
100
AcDbEntity
  8
GELAENDE
100
AcDbFace
 10
2.0
 20
16.0
 30
98.78731780699604
 11
4.0
 21
16.0
 31
98.84066332402132
 12
4.0
 22
18.0
 32
99.32444889967971
 13
2.0
 23
18.0
 33
99.27110338265443
  0
3DFACE
  5
4F
330
17
100
AcDbEntity
  8
GELAENDE
100
AcDbFace
 10
2.0
 20
18.0
 30
99.27110338265443
 11
4.0
 21
18.0
 31
99.32444889967971
 12
4.0
 22
20.0
 32
99.71462354696335
 13
2.0
 23
20.0
 33
99.66127802993807
  0
3DFACE
  5
50
330
17
100
AcDbEntity
  8
GELAENDE
100
AcDbFace
 10
2.0
 20
20.0
 30
99.66127802993807
 11
4.0
 21
20.0
 31
99.71462354696335
 12
4.0
 22
22.0
 32
99.83850616043505
 13
2.0
 23
22.0
 33
99.78516064340977
  0
3DFACE
  5
51
330
17
100
AcDbEntity
  8
GELAENDE
100
AcDbFace
 10
2.0
 20
22.0
 30
99.78516064340977
 11
4.0
 21
22.0
 31
99.83850616043505
 12
4.0
 22
24.0
 32
99.8690962960649
 13
2.0
 23
24.0
 33
99.81575077903962
  0
3DFACE
  5
52
330
17
100
AcDbEntity
  8
GELAENDE
100
AcDbFace
 10
2.0
 20
24.0
 30
99.81575077903962
 11
4.0
 21
24.0
 31
99.8690962960649
 12
4.0
 22
26.0
 32
99.9003119851651
 13
2.0
 23
26.0
 33
99.84696646813983
  0
3DFACE
  5
53
330
17
100
AcDbEntity
  8
GELAENDE
100
AcDbFace
 10
2.0
 20
26.0
 30
99.84696646813983
 11
4.0
 21
26.0
 31
99.9003119851651
 12
4.0
 22
28.0
 32
99.94707259827656
 13
2.0
 23
28.0
 33
99.89372708125128
  0
3DFACE
  5
54
330
17
100
AcDbEntity
  8
GELAENDE
100
AcDbFace
 10
2.0
 20
28.0
 30
99.89372708125128
 11
4.0
 21
28.0
 31
99.94707259827656
 12
4.0
 22
30.0
 32
100.00702323594176
 13
2.0
 23
30.0
 33
99.95367771891648
  0
3DFACE
  5
55
330
17
100
AcDbEntity
  8
GELAENDE
100
AcDbFace
 10
4.0
 20
0.0
 30
100.36048471457754
 11
6.0
 21
0.0
 31
100.40642941841702
 12
6.0
 22
2.0
 32
100.39629335260992
 13
4.0
 23
2.0
 33
100.35034864877044
  0
3DFACE
  5
56
330
17
100
AcDbEntity
  8
GELAENDE
100
AcDbFace
 10
4.0
 20
2.0
 30
100.35034864877044
 11
6.0
 21
2.0
 31
100.39629335260992
 12
6.0
 22
4.0
 32
100.36665015787956
 13
4.0
 23
4.0
 33
100.32070545404008
  0
3DFACE
  5
57
330
17
100
AcDbEntity
  8
GELAENDE
100
AcDbFace
 10
4.0
 20
4.0
 30
100.32070545404008
 11
6.0
 21
4.0
 31
100.36665015787956
 12
6.0
 22
6.0
 32
100.31846687329538
 13
4.0
 23
6.0
 33
100.2725221694559
  0
3DFACE
  5
58
330
17
100
AcDbEntity
  8
GELAENDE
100
AcDbFace
 10
4.0
 20
6.0
 30
100.2725221694559
 11
6.0
 21
6.0
 31
100.31846687329538
 12
6.0
 22
8.0
 32
100.23819984123818
 13
4.0
 23
8.0
 33
100.1922551373987
  0
3DFACE
  5
59
330
17
100
AcDbEntity
  8
GELAENDE
100
AcDbFace
 10
4.0
 20
8.0
 30
100.1922551373987
 11
6.0
 21
8.0
 31
100.23819984123818
 12
6.0
 22
10.0
 32
100.03595877542242
 13
4.0
 23
10.0
 33
99.99001407158293
  0
3DFACE
  5
5A
330
17
100
AcDbEntity
  8
GELAENDE
100
AcDbFace
 10
4.0
 20
10.0
 30
99.99001407158293
 11
6.0
 21
10.0
 31
100.03595877542242
 12
6.0
 22
12.0
 32
99.54509733212397
 13
4.0
 23
12.0
 33
99.49915262828449
  0
3DFACE
  5
5B
330
17
100
AcDbEntity
  8
GELAENDE
100
AcDbFace
 10
4.0
 20
12.0
 30
99.49915262828449
 11
6.0
 21
12.0
 31
99.54509733212397
 12
6.0
 22
14.0
 32
98.94646018518034
 13
4.0
 23
14.0
 33
98.90051548134086
  0
3DFACE
  5
5C
330
17
100
AcDbEntity
  8
GELAENDE
100
AcDbFace
 10
4.0
 20
14.0
 30
98.90051548134086
 11
6.0
 21
14.0
 31
98.94646018518034
 12
6.0
 22
16.0
 32
98.8866080278608
 13
4.0
 23
16.0
 33
98.84066332402132
  0
3DFACE
  5
5D
330
17
100
AcDbEntity
  8
GELAENDE
100
AcDbFace
 10
4.0
 20
16.0
 30
98.84066332402132
 11
6.0
 21
16.0
 31
98.8866080278608
 12
6.0
 22
18.0
 32
99.37039360351919
 13
4.0
 23
18.0
 33
99.32444889967971
  0
3DFACE
  5
5E
330
17
100
AcDbEntity
  8
GELAENDE
100
AcDbFace
 10
4.0
 20
18.0
 30
99.32444889967971
 11
6.0
 21
18.0
 31
99.37039360351919
 12
6.0
 22
20.0
 32
99.76056825080283
 13
4.0
 23
20.0
 33
99.71462354696335
  0
3DFACE
  5
5F
330
17
100
AcDbEntity
  8
GELAENDE
100
AcDbFace
 10
4.0
 20
20.0
 30
99.71462354696335
 11
6.0
 21
20.0
 31
99.76056825080283
 12
6.0
 22
22.0
 32
99.88445086427453
 13
4.0
 23
22.0
 33
99.83850616043505
  0
3DFACE
  5
60
330
17
100
AcDbEntity
  8
GELAENDE
100
AcDbFace
 10
4.0
 20
22.0
 30
99.83850616043505
 11
6.0
 21
22.0
 31
99.88445086427453
 12
6.0
 22
24.0
 32
99.91504099990438
 13
4.0
 23
24.0
 33
99.8690962960649
  0
3DFACE
  5
61
330
17
100
AcDbEntity
  8
GELAENDE
100
AcDbFace
 10
4.0
 20
24.0
 30
99.8690962960649
 11
6.0
 21
24.0
 31
99.91504099990438
 12
6.0
 22
26.0
 32
99.94625668900458
 13
4.0
 23
26.0
 33
99.9003119851651
  0
3DFACE
  5
62
330
17
100
AcDbEntity
  8
GELAENDE
100
AcDbFace
 10
4.0
 20
26.0
 30
99.9003119851651
 11
6.0
 21
26.0
 31
99.94625668900458
 12
6.0
 22
28.0
 32
99.99301730211604
 13
4.0
 23
28.0
 33
99.94707259827656
  0
3DFACE
  5
63
330
17
100
AcDbEntity
  8
GELAENDE
100
AcDbFace
 10
4.0
 20
28.0
 30
99.94707259827656
 11
6.0
 21
28.0
 31
99.99301730211604
 12
6.0
 22
30.0
 32
100.05296793978124
 13
4.0
 23
30.0
 33
100.00702323594176
  0
3DFACE
  5
64
330
17
100
AcDbEntity
  8
GELAENDE
100
AcDbFace
 10
6.0
 20
0.0
 30
100.40642941841702
 11
8.0
 21
0.0
 31
100.44173015979786
 12
8.0
 22
2.0
 32
100.43159409399075
 13
6.0
 23
2.0
 33
100.39629335260992
  0
3DFACE
  5
65
330
17
100
AcDbEntity
  8
GELAENDE
100
AcDbFace
 10
6.0
 20
2.0
 30
100.39629335260992
 11
8.0
 21
2.0
 31
100.43159409399075
 12
8.0
 22
4.0
 32
100.4019508992604
 13
6.0
 23
4.0
 33
100.36665015787956
  0
3DFACE
  5
66
330
17
100
AcDbEntity
  8
GELAENDE
100
AcDbFace
 10
6.0
 20
4.0
 30
100.36665015787956
 11
8.0
 21
4.0
 31
100.4019508992604
 12
8.0
 22
6.0
 32
100.35376761467622
 13
6.0
 23
6.0
 33
100.31846687329538
  0
3DFACE
  5
67
330
17
100
AcDbEntity
  8
GELAENDE
100
AcDbFace
 10
6.0
 20
6.0
 30
100.31846687329538
 11
8.0
 21
6.0
 31
100.35376761467622
 12
8.0
 22
8.0
 32
100.27350058261902
 13
6.0
 23
8.0
 33
100.23819984123818
  0
3DFACE
  5
68
330
17
100
AcDbEntity
  8
GELAENDE
100
AcDbFace
 10
6.0
 20
8.0
 30
100.23819984123818
 11
8.0
 21
8.0
 31
100.27350058261902
 12
8.0
 22
10.0
 32
100.07125951680325
 13
6.0
 23
10.0
 33
100.03595877542242
  0
3DFACE
  5
69
330
17
100
AcDbEntity
  8
GELAENDE
100
AcDbFace
 10
6.0
 20
10.0
 30
100.03595877542242
 11
8.0
 21
10.0
 31
100.07125951680325
 12
8.0
 22
12.0
 32
99.58039807350481
 13
6.0
 23
12.0
 33
99.54509733212397
  0
3DFACE
  5
6A
330
17
100
AcDbEntity
  8
GELAENDE
100
AcDbFace
 10
6.0
 20
12.0
 30
99.54509733212397
 11
8.0
 21
12.0
 31
99.58039807350481
 12
8.0
 22
14.0
 32
98.98176092656118
 13
6.0
 23
14.0
 33
98.94646018518034
  0
3DFACE
  5
6B
330
17
100
AcDbEntity
  8
GELAENDE
100
AcDbFace
 10
6.0
 20
14.0
 30
98.94646018518034
 11
8.0
 21
14.0
 31
98.98176092656118
 12
8.0
 22
16.0
 32
98.92190876924164
 13
6.0
 23
16.0
 33
98.8866080278608
  0
3DFACE
  5
6C
330
17
100
AcDbEntity
  8
GELAENDE
100
AcDbFace
 10
6.0
 20
16.0
 30
98.8866080278608
 11
8.0
 21
16.0
 31
98.92190876924164
 12
8.0
 22
18.0
 32
99.40569434490003
 13
6.0
 23
18.0
 33
99.37039360351919
  0
3DFACE
  5
6D
330
17
100
AcDbEntity
  8
GELAENDE
100
AcDbFace
 10
6.0
 20
18.0
 30
99.37039360351919
 11
8.0
 21
18.0
 31
99.40569434490003
 12
8.0
 22
20.0
 32
99.79586899218367
 13
6.0
 23
20.0
 33
99.76056825080283
  0
3DFACE
  5
6E
330
17
100
AcDbEntity
  8
GELAENDE
100
AcDbFace
 10
6.0
 20
20.0
 30
99.76056825080283
 11
8.0
 21
20.0
 31
99.79586899218367
 12
8.0
 22
22.0
 32
99.91975160565536
 13
6.0
 23
22.0
 33
99.88445086427453
  0
3DFACE
  5
6F
330
17
100
AcDbEntity
  8
GELAENDE
100
AcDbFace
 10
6.0
 20
22.0
 30
99.88445086427453
 11
8.0
 21
22.0
 31
99.91975160565536
 12
8.0
 22
24.0
 32
99.95034174128521
 13
6.0
 23
24.0
 33
99.91504099990438
  0
3DFACE
  5
70
330
17
100
AcDbEntity
  8
GELAENDE
100
AcDbFace
 10
6.0
 20
24.0
 30
99.91504099990438
 11
8.0
 21
24.0
 31
99.95034174128521
 12
8.0
 22
26.0
 32
99.98155743038542
 13
6.0
 23
26.0
 33
99.94625668900458
  0
3DFACE
  5
71
330
17
100
AcDbEntity
  8
GELAENDE
100
AcDbFace
 10
6.0
 20
26.0
 30
99.94625668900458
 11
8.0
 21
26.0
 31
99.98155743038542
 12
8.0
 22
28.0
 32
100.02831804349688
 13
6.0
 23
28.0
 33
99.99301730211604
  0
3DFACE
  5
72
330
17
100
AcDbEntity
  8
GELAENDE
100
AcDbFace
 10
6.0
 20
28.0
 30
99.99301730211604
 11
8.0
 21
28.0
 31
100.02831804349688
 12
8.0
 22
30.0
 32
100.08826868116208
 13
6.0
 23
30.0
 33
100.05296793978124
  0
3DFACE
  5
73
330
17
100
AcDbEntity
  8
GELAENDE
100
AcDbFace
 10
8.0
 20
0.0
 30
100.44173015979786
 11
10.0
 21
0.0
 31
100.46366725770311
 12
10.0
 22
2.0
 32
100.453531191896
 13
8.0
 23
2.0
 33
100.43159409399075
  0
3DFACE
  5
74
330
17
100
AcDbEntity
  8
GELAENDE
100
AcDbFace
 10
8.0
 20
2.0
 30
100.43159409399075
 11
10.0
 21
2.0
 31
100.453531191896
 12
10.0
 22
4.0
 32
100.42388799716565
 13
8.0
 23
4.0
 33
100.4019508992604
  0
3DFACE
  5
75
330
17
100
AcDbEntity
  8
GELAENDE
100
AcDbFace
 10
8.0
 20
4.0
 30
100.4019508992604
 11
10.0
 21
4.0
 31
100.42388799716565
 12
10.0
 22
6.0
 32
100.37570471258147
 13
8.0
 23
6.0
 33
100.35376761467622
  0
3DFACE
  5
76
330
17
100
AcDbEntity
  8
GELAENDE
100
AcDbFace
 10
8.0
 20
6.0
 30
100.35376761467622
 11
10.0
 21
6.0
 31
100.37570471258147
 12
10.0
 22
8.0
 32
100.29543768052427
 13
8.0
 23
8.0
 33
100.27350058261902
  0
3DFACE
  5
77
330
17
100
AcDbEntity
  8
GELAENDE
100
AcDbFace
 10
8.0
 20
8.0
 30
100.27350058261902
 11
10.0
 21
8.0
 31
100.29543768052427
 12
10.0
 22
10.0
 32
100.0931966147085
 13
8.0
 23
10.0
 33
100.07125951680325
  0
3DFACE
  5
78
330
17
100
AcDbEntity
  8
GELAENDE
100
AcDbFace
 10
8.0
 20
10.0
 30
100.07125951680325
 11
10.0
 21
10.0
 31
100.0931966147085
 12
10.0
 22
12.0
 32
99.60233517141006
 13
8.0
 23
12.0
 33
99.58039807350481
  0
3DFACE
  5
79
330
17
100
AcDbEntity
  8
GELAENDE
100
AcDbFace
 10
8.0
 20
12.0
 30
99.58039807350481
 11
10.0
 21
12.0
 31
99.60233517141006
 12
10.0
 22
14.0
 32
99.00369802446643
 13
8.0
 23
14.0
 33
98.98176092656118
  0
3DFACE
  5
7A
330
17
100
AcDbEntity
  8
GELAENDE
100
AcDbFace
 10
8.0
 20
14.0
 30
98.98176092656118
 11
10.0
 21
14.0
 31
99.00369802446643
 12
10.0
 22
16.0
 32
98.94384586714689
 13
8.0
 23
16.0
 33
98.92190876924164
  0
3DFACE
  5
7B
330
17
100
AcDbEntity
  8
GELAENDE
100
AcDbFace
 10
8.0
 20
16.0
 30
98.92190876924164
 11
10.0
 21
16.0
 31
98.94384586714689
 12
10.0
 22
18.0
 32
99.42763144280528
 13
8.0
 23
18.0
 33
99.40569434490003
  0
3DFACE
  5
7C
330
17
100
AcDbEntity
  8
GELAENDE
100
AcDbFace
 10
8.0
 20
18.0
 30
99.40569434490003
 11
10.0
 21
18.0
 31
99.42763144280528
 12
10.0
 22
20.0
 32
99.81780609008892
 13
8.0
 23
20.0
 33
99.79586899218367
  0
3DFACE
  5
7D
330
17
100
AcDbEntity
  8
GELAENDE
100
AcDbFace
 10
8.0
 20
20.0
 30
99.79586899218367
 11
10.0
 21
20.0
 31
99.81780609008892
 12
10.0
 22
22.0
 32
99.94168870356062
 13
8.0
 23
22.0
 33
99.91975160565536
  0
3DFACE
  5
7E
330
17
100
AcDbEntity
  8
GELAENDE
100
AcDbFace
 10
8.0
 20
22.0
 30
99.91975160565536
 11
10.0
 21
22.0
 31
99.94168870356062
 12
10.0
 22
24.0
 32
99.97227883919047
 13
8.0
 23
24.0
 33
99.95034174128521
  0
3DFACE
  5
7F
330
17
100
AcDbEntity
  8
GELAENDE
100
AcDbFace
 10
8.0
 20
24.0
 30
99.95034174128521
 11
10.0
 21
24.0
 31
99.97227883919047
 12
10.0
 22
26.0
 32
100.00349452829067
 13
8.0
 23
26.0
 33
99.98155743038542
  0
3DFACE
  5
80
330
17
100
AcDbEntity
  8
GELAENDE
100
AcDbFace
 10
8.0
 20
26.0
 30
99.98155743038542
 11
10.0
 21
26.0
 31
100.00349452829067
 12
10.0
 22
28.0
 32
100.05025514140213
 13
8.0
 23
28.0
 33
100.02831804349688
  0
3DFACE
  5
81
330
17
100
AcDbEntity
  8
GELAENDE
100
AcDbFace
 10
8.0
 20
28.0
 30
100.02831804349688
 11
10.0
 21
28.0
 31
100.05025514140213
 12
10.0
 22
30.0
 32
100.11020577906733
 13
8.0
 23
30.0
 33
100.08826868116208
  0
3DFACE
  5
82
330
17
100
AcDbEntity
  8
GELAENDE
100
AcDbFace
 10
10.0
 20
0.0
 30
100.46366725770311
 11
12.0
 21
0.0
 31
100.47017825281978
 12
12.0
 22
2.0
 32
100.46004218701268
 13
10.0
 23
2.0
 33
100.453531191896
  0
3DFACE
  5
83
330
17
100
AcDbEntity
  8
GELAENDE
100
AcDbFace
 10
10.0
 20
2.0
 30
100.453531191896
 11
12.0
 21
2.0
 31
100.46004218701268
 12
12.0
 22
4.0
 32
100.43039899228232
 13
10.0
 23
4.0
 33
100.42388799716565
  0
3DFACE
  5
84
330
17
100
AcDbEntity
  8
GELAENDE
100
AcDbFace
 10
10.0
 20
4.0
 30
100.42388799716565
 11
12.0
 21
4.0
 31
100.43039899228232
 12
12.0
 22
6.0
 32
100.38221570769814
 13
10.0
 23
6.0
 33
100.37570471258147
  0
3DFACE
  5
85
330
17
100
AcDbEntity
  8
GELAENDE
100
AcDbFace
 10
10.0
 20
6.0
 30
100.37570471258147
 11
12.0
 21
6.0
 31
100.38221570769814
 12
12.0
 22
8.0
 32
100.30194867564094
 13
10.0
 23
8.0
 33
100.29543768052427
  0
3DFACE
  5
86
330
17
100
AcDbEntity
  8
GELAENDE
100
AcDbFace
 10
10.0
 20
8.0
 30
100.29543768052427
 11
12.0
 21
8.0
 31
100.30194867564094
 12
12.0
 22
10.0
 32
100.09970760982517
 13
10.0
 23
10.0
 33
100.0931966147085
  0
3DFACE
  5
87
330
17
100
AcDbEntity
  8
GELAENDE
100
AcDbFace
 10
10.0
 20
10.0
 30
100.0931966147085
 11
12.0
 21
10.0
 31
100.09970760982517
 12
12.0
 22
12.0
 32
99.60884616652673
 13
10.0
 23
12.0
 33
99.60233517141006
  0
3DFACE
  5
88
330
17
100
AcDbEntity
  8
GELAENDE
100
AcDbFace
 10
10.0
 20
12.0
 30
99.60233517141006
 11
12.0
 21
12.0
 31
99.60884616652673
 12
12.0
 22
14.0
 32
99.0102090195831
 13
10.0
 23
14.0
 33
99.00369802446643
  0
3DFACE
  5
89
330
17
100
AcDbEntity
  8
GELAENDE
100
AcDbFace
 10
10.0
 20
14.0
 30
99.00369802446643
 11
12.0
 21
14.0
 31
99.0102090195831
 12
12.0
 22
16.0
 32
98.95035686226356
 13
10.0
 23
16.0
 33
98.94384586714689
  0
3DFACE
  5
8A
330
17
100
AcDbEntity
  8
GELAENDE
100
AcDbFace
 10
10.0
 20
16.0
 30
98.94384586714689
 11
12.0
 21
16.0
 31
98.95035686226356
 12
12.0
 22
18.0
 32
99.43414243792195
 13
10.0
 23
18.0
 33
99.42763144280528
  0
3DFACE
  5
8B
330
17
100
AcDbEntity
  8
GELAENDE
100
AcDbFace
 10
10.0
 20
18.0
 30
99.42763144280528
 11
12.0
 21
18.0
 31
99.43414243792195
 12
12.0
 22
20.0
 32
99.82431708520559
 13
10.0
 23
20.0
 33
99.81780609008892
  0
3DFACE
  5
8C
330
17
100
AcDbEntity
  8
GELAENDE
100
AcDbFace
 10
10.0
 20
20.0
 30
99.81780609008892
 11
12.0
 21
20.0
 31
99.82431708520559
 12
12.0
 22
22.0
 32
99.94819969867729
 13
10.0
 23
22.0
 33
99.94168870356062
  0
3DFACE
  5
8D
330
17
100
AcDbEntity
  8
GELAENDE
100
AcDbFace
 10
10.0
 20
22.0
 30
99.94168870356062
 11
12.0
 21
22.0
 31
99.94819969867729
 12
12.0
 22
24.0
 32
99.97878983430714
 13
10.0
 23
24.0
 33
99.97227883919047
  0
3DFACE
  5
8E
330
17
100
AcDbEntity
  8
GELAENDE
100
AcDbFace
 10
10.0
 20
24.0
 30
99.97227883919047
 11
12.0
 21
24.0
 31
99.97878983430714
 12
12.0
 22
26.0
 32
100.01000552340734
 13
10.0
 23
26.0
 33
100.00349452829067
  0
3DFACE
  5
8F
330
17
100
AcDbEntity
  8
GELAENDE
100
AcDbFace
 10
10.0
 20
26.0
 30
100.00349452829067
 11
12.0
 21
26.0
 31
100.01000552340734
 12
12.0
 22
28.0
 32
100.0567661365188
 13
10.0
 23
28.0
 33
100.05025514140213
  0
3DFACE
  5
90
330
17
100
AcDbEntity
  8
GELAENDE
100
AcDbFace
 10
10.0
 20
28.0
 30
100.05025514140213
 11
12.0
 21
28.0
 31
100.0567661365188
 12
12.0
 22
30.0
 32
100.116716774184
 13
10.0
 23
30.0
 33
100.11020577906733
  0
3DFACE
  5
91
330
17
100
AcDbEntity
  8
GELAENDE
100
AcDbFace
 10
12.0
 20
0.0
 30
100.47017825281978
 11
14.0
 21
0.0
 31
100.45995933893555
 12
14.0
 22
2.0
 32
100.44982327312844
 13
12.0
 23
2.0
 33
100.46004218701268
  0
3DFACE
  5
92
330
17
100
AcDbEntity
  8
GELAENDE
100
AcDbFace
 10
12.0
 20
2.0
 30
100.46004218701268
 11
14.0
 21
2.0
 31
100.44982327312844
 12
14.0
 22
4.0
 32
100.42018007839809
 13
12.0
 23
4.0
 33
100.43039899228232
  0
3DFACE
  5
93
330
17
100
AcDbEntity
  8
GELAENDE
100
AcDbFace
 10
12.0
 20
4.0
 30
100.43039899228232
 11
14.0
 21
4.0
 31
100.42018007839809
 12
14.0
 22
6.0
 32
100.3719967938139
 13
12.0
 23
6.0
 33
100.38221570769814
  0
3DFACE
  5
94
330
17
100
AcDbEntity
  8
GELAENDE
100
AcDbFace
 10
12.0
 20
6.0
 30
100.38221570769814
 11
14.0
 21
6.0
 31
100.3719967938139
 12
14.0
 22
8.0
 32
100.29172976175671
 13
12.0
 23
8.0
 33
100.30194867564094
  0
3DFACE
  5
95
330
17
100
AcDbEntity
  8
GELAENDE
100
AcDbFace
 10
12.0
 20
8.0
 30
100.30194867564094
 11
14.0
 21
8.0
 31
100.29172976175671
 12
14.0
 22
10.0
 32
100.08948869594094
 13
12.0
 23
10.0
 33
100.09970760982517
  0
3DFACE
  5
96
330
17
100
AcDbEntity
  8
GELAENDE
100
AcDbFace
 10
12.0
 20
10.0
 30
100.09970760982517
 11
14.0
 21
10.0
 31
100.08948869594094
 12
14.0
 22
12.0
 32
99.5986272526425
 13
12.0
 23
12.0
 33
99.60884616652673
  0
3DFACE
  5
97
330
17
100
AcDbEntity
  8
GELAENDE
100
AcDbFace
 10
12.0
 20
12.0
 30
99.60884616652673
 11
14.0
 21
12.0
 31
99.5986272526425
 12
14.0
 22
14.0
 32
98.99999010569887
 13
12.0
 23
14.0
 33
99.0102090195831
  0
3DFACE
  5
98
330
17
100
AcDbEntity
  8
GELAENDE
100
AcDbFace
 10
12.0
 20
14.0
 30
99.0102090195831
 11
14.0
 21
14.0
 31
98.99999010569887
 12
14.0
 22
16.0
 32
98.94013794837933
 13
12.0
 23
16.0
 33
98.95035686226356
  0
3DFACE
  5
99
330
17
100
AcDbEntity
  8
GELAENDE
100
AcDbFace
 10
12.0
 20
16.0
 30
98.95035686226356
 11
14.0
 21
16.0
 31
98.94013794837933
 12
14.0
 22
18.0
 32
99.42392352403772
 13
12.0
 23
18.0
 33
99.43414243792195
  0
3DFACE
  5
9A
330
17
100
AcDbEntity
  8
GELAENDE
100
AcDbFace
 10
12.0
 20
18.0
 30
99.43414243792195
 11
14.0
 21
18.0
 31
99.42392352403772
 12
14.0
 22
20.0
 32
99.81409817132136
 13
12.0
 23
20.0
 33
99.82431708520559
  0
3DFACE
  5
9B
330
17
100
AcDbEntity
  8
GELAENDE
100
AcDbFace
 10
12.0
 20
20.0
 30
99.82431708520559
 11
14.0
 21
20.0
 31
99.81409817132136
 12
14.0
 22
22.0
 32
99.93798078479306
 13
12.0
 23
22.0
 33
99.94819969867729
  0
3DFACE
  5
9C
330
17
100
AcDbEntity
  8
GELAENDE
100
AcDbFace
 10
12.0
 20
22.0
 30
99.94819969867729
 11
14.0
 21
22.0
 31
99.93798078479306
 12
14.0
 22
24.0
 32
99.9685709204229
 13
12.0
 23
24.0
 33
99.97878983430714
  0
3DFACE
  5
9D
330
17
100
AcDbEntity
  8
GELAENDE
100
AcDbFace
 10
12.0
 20
24.0
 30
99.97878983430714
 11
14.0
 21
24.0
 31
99.9685709204229
 12
14.0
 22
26.0
 32
99.99978660952311
 13
12.0
 23
26.0
 33
100.01000552340734
  0
3DFACE
  5
9E
330
17
100
AcDbEntity
  8
GELAENDE
100
AcDbFace
 10
12.0
 20
26.0
 30
100.01000552340734
 11
14.0
 21
26.0
 31
99.99978660952311
 12
14.0
 22
28.0
 32
100.04654722263457
 13
12.0
 23
28.0
 33
100.0567661365188
  0
3DFACE
  5
9F
330
17
100
AcDbEntity
  8
GELAENDE
100
AcDbFace
 10
12.0
 20
28.0
 30
100.0567661365188
 11
14.0
 21
28.0
 31
100.04654722263457
 12
14.0
 22
30.0
 32
100.10649786029977
 13
12.0
 23
30.0
 33
100.116716774184
  0
3DFACE
  5
A0
330
17
100
AcDbEntity
  8
GELAENDE
100
AcDbFace
 10
14.0
 20
0.0
 30
100.45995933893555
 11
16.0
 21
0.0
 31
100.43252948390567
 12
16.0
 22
2.0
 32
100.42239341809857
 13
14.0
 23
2.0
 33
100.44982327312844
  0
3DFACE
  5
A1
330
17
100
AcDbEntity
  8
GELAENDE
100
AcDbFace
 10
14.0
 20
2.0
 30
100.44982327312844
 11
16.0
 21
2.0
 31
100.42239341809857
 12
16.0
 22
4.0
 32
100.39275022336821
 13
14.0
 23
4.0
 33
100.42018007839809
  0
3DFACE
  5
A2
330
17
100
AcDbEntity
  8
GELAENDE
100
AcDbFace
 10
14.0
 20
4.0
 30
100.42018007839809
 11
16.0
 21
4.0
 31
100.39275022336821
 12
16.0
 22
6.0
 32
100.34456693878403
 13
14.0
 23
6.0
 33
100.3719967938139
  0
3DFACE
  5
A3
330
17
100
AcDbEntity
  8
GELAENDE
100
AcDbFace
 10
14.0
 20
6.0
 30
100.3719967938139
 11
16.0
 21
6.0
 31
100.34456693878403
 12
16.0
 22
8.0
 32
100.26429990672683
 13
14.0
 23
8.0
 33
100.29172976175671
  0
3DFACE
  5
A4
330
17
100
AcDbEntity
  8
GELAENDE
100
AcDbFace
 10
14.0
 20
8.0
 30
100.29172976175671
 11
16.0
 21
8.0
 31
100.26429990672683
 12
16.0
 22
10.0
 32
100.06205884091106
 13
14.0
 23
10.0
 33
100.08948869594094
  0
3DFACE
  5
A5
330
17
100
AcDbEntity
  8
GELAENDE
100
AcDbFace
 10
14.0
 20
10.0
 30
100.08948869594094
 11
16.0
 21
10.0
 31
100.06205884091106
 12
16.0
 22
12.0
 32
99.57119739761262
 13
14.0
 23
12.0
 33
99.5986272526425
  0
3DFACE
  5
A6
330
17
100
AcDbEntity
  8
GELAENDE
100
AcDbFace
 10
14.0
 20
12.0
 30
99.5986272526425
 11
16.0
 21
12.0
 31
99.57119739761262
 12
16.0
 22
14.0
 32
98.97256025066899
 13
14.0
 23
14.0
 33
98.99999010569887
  0
3DFACE
  5
A7
330
17
100
AcDbEntity
  8
GELAENDE
100
AcDbFace
 10
14.0
 20
14.0
 30
98.99999010569887
 11
16.0
 21
14.0
 31
98.97256025066899
 12
16.0
 22
16.0
 32
98.91270809334945
 13
14.0
 23
16.0
 33
98.94013794837933
  0
3DFACE
  5
A8
330
17
100
AcDbEntity
  8
GELAENDE
100
AcDbFace
 10
14.0
 20
16.0
 30
98.94013794837933
 11
16.0
 21
16.0
 31
98.91270809334945
 12
16.0
 22
18.0
 32
99.39649366900784
 13
14.0
 23
18.0
 33
99.42392352403772
  0
3DFACE
  5
A9
330
17
100
AcDbEntity
  8
GELAENDE
100
AcDbFace
 10
14.0
 20
18.0
 30
99.42392352403772
 11
16.0
 21
18.0
 31
99.39649366900784
 12
16.0
 22
20.0
 32
99.78666831629148
 13
14.0
 23
20.0
 33
99.81409817132136
  0
3DFACE
  5
AA
330
17
100
AcDbEntity
  8
GELAENDE
100
AcDbFace
 10
14.0
 20
20.0
 30
99.81409817132136
 11
16.0
 21
20.0
 31
99.78666831629148
 12
16.0
 22
22.0
 32
99.91055092976318
 13
14.0
 23
22.0
 33
99.93798078479306
  0
3DFACE
  5
AB
330
17
100
AcDbEntity
  8
GELAENDE
100
AcDbFace
 10
14.0
 20
22.0
 30
99.93798078479306
 11
16.0
 21
22.0
 31
99.91055092976318
 12
16.0
 22
24.0
 32
99.94114106539303
 13
14.0
 23
24.0
 33
99.9685709204229
  0
3DFACE
  5
AC
330
17
100
AcDbEntity
  8
GELAENDE
100
AcDbFace
 10
14.0
 20
24.0
 30
99.9685709204229
 11
16.0
 21
24.0
 31
99.94114106539303
 12
16.0
 22
26.0
 32
99.97235675449323
 13
14.0
 23
26.0
 33
99.99978660952311
  0
3DFACE
  5
AD
330
17
100
AcDbEntity
  8
GELAENDE
100
AcDbFace
 10
14.0
 20
26.0
 30
99.99978660952311
 11
16.0
 21
26.0
 31
99.97235675449323
 12
16.0
 22
28.0
 32
100.0191173676047
 13
14.0
 23
28.0
 33
100.04654722263457
  0
3DFACE
  5
AE
330
17
100
AcDbEntity
  8
GELAENDE
100
AcDbFace
 10
14.0
 20
28.0
 30
100.04654722263457
 11
16.0
 21
28.0
 31
100.0191173676047
 12
16.0
 22
30.0
 32
100.07906800526989
 13
14.0
 23
30.0
 33
100.10649786029977
  0
3DFACE
  5
AF
330
17
100
AcDbEntity
  8
GELAENDE
100
AcDbFace
 10
16.0
 20
0.0
 30
100.43252948390567
 11
18.0
 21
0.0
 31
100.3882540867316
 12
18.0
 22
2.0
 32
100.3781180209245
 13
16.0
 23
2.0
 33
100.42239341809857
  0
3DFACE
  5
B0
330
17
100
AcDbEntity
  8
GELAENDE
100
AcDbFace
 10
16.0
 20
2.0
 30
100.42239341809857
 11
18.0
 21
2.0
 31
100.3781180209245
 12
18.0
 22
4.0
 32
100.34847482619415
 13
16.0
 23
4.0
 33
100.39275022336821
  0
3DFACE
  5
B1
330
17
100
AcDbEntity
  8
GELAENDE
100
AcDbFace
 10
16.0
 20
4.0
 30
100.39275022336821
 11
18.0
 21
4.0
 31
100.34847482619415
 12
18.0
 22
6.0
 32
100.30029154160997
 13
16.0
 23
6.0
 33
100.34456693878403
  0
3DFACE
  5
B2
330
17
100
AcDbEntity
  8
GELAENDE
100
AcDbFace
 10
16.0
 20
6.0
 30
100.34456693878403
 11
18.0
 21
6.0
 31
100.30029154160997
 12
18.0
 22
8.0
 32
100.22002450955277
 13
16.0
 23
8.0
 33
100.26429990672683
  0
3DFACE
  5
B3
330
17
100
AcDbEntity
  8
GELAENDE
100
AcDbFace
 10
16.0
 20
8.0
 30
100.26429990672683
 11
18.0
 21
8.0
 31
100.22002450955277
 12
18.0
 22
10.0
 32
100.017783443737
 13
16.0
 23
10.0
 33
100.06205884091106
  0
3DFACE
  5
B4
330
17
100
AcDbEntity
  8
GELAENDE
100
AcDbFace
 10
16.0
 20
10.0
 30
100.06205884091106
 11
18.0
 21
10.0
 31
100.017783443737
 12
18.0
 22
12.0
 32
99.52692200043856
 13
16.0
 23
12.0
 33
99.57119739761262
  0
3DFACE
  5
B5
330
17
100
AcDbEntity
  8
GELAENDE
100
AcDbFace
 10
16.0
 20
12.0
 30
99.57119739761262
 11
18.0
 21
12.0
 31
99.52692200043856
 12
18.0
 22
14.0
 32
98.92828485349493
 13
16.0
 23
14.0
 33
98.97256025066899
  0
3DFACE
  5
B6
330
17
100
AcDbEntity
  8
GELAENDE
100
AcDbFace
 10
16.0
 20
14.0
 30
98.97256025066899
 11
18.0
 21
14.0
 31
98.92828485349493
 12
18.0
 22
16.0
 32
98.86843269617539
 13
16.0
 23
16.0
 33
98.91270809334945
  0
3DFACE
  5
B7
330
17
100
AcDbEntity
  8
GELAENDE
100
AcDbFace
 10
16.0
 20
16.0
 30
98.91270809334945
 11
18.0
 21
16.0
 31
98.86843269617539
 12
18.0
 22
18.0
 32
99.35221827183378
 13
16.0
 23
18.0
 33
99.39649366900784
  0
3DFACE
  5
B8
330
17
100
AcDbEntity
  8
GELAENDE
100
AcDbFace
 10
16.0
 20
18.0
 30
99.39649366900784
 11
18.0
 21
18.0
 31
99.35221827183378
 12
18.0
 22
20.0
 32
99.74239291911742
 13
16.0
 23
20.0
 33
99.78666831629148
  0
3DFACE
  5
B9
330
17
100
AcDbEntity
  8
GELAENDE
100
AcDbFace
 10
16.0
 20
20.0
 30
99.78666831629148
 11
18.0
 21
20.0
 31
99.74239291911742
 12
18.0
 22
22.0
 32
99.86627553258911
 13
16.0
 23
22.0
 33
99.91055092976318
  0
3DFACE
  5
BA
330
17
100
AcDbEntity
  8
GELAENDE
100
AcDbFace
 10
16.0
 20
22.0
 30
99.91055092976318
 11
18.0
 21
22.0
 31
99.86627553258911
 12
18.0
 22
24.0
 32
99.89686566821896
 13
16.0
 23
24.0
 33
99.94114106539303
  0
3DFACE
  5
BB
330
17
100
AcDbEntity
  8
GELAENDE
100
AcDbFace
 10
16.0
 20
24.0
 30
99.94114106539303
 11
18.0
 21
24.0
 31
99.89686566821896
 12
18.0
 22
26.0
 32
99.92808135731917
 13
16.0
 23
26.0
 33
99.97235675449323
  0
3DFACE
  5
BC
330
17
100
AcDbEntity
  8
GELAENDE
100
AcDbFace
 10
16.0
 20
26.0
 30
99.97235675449323
 11
18.0
 21
26.0
 31
99.92808135731917
 12
18.0
 22
28.0
 32
99.97484197043063
 13
16.0
 23
28.0
 33
100.0191173676047
  0
3DFACE
  5
BD
330
17
100
AcDbEntity
  8
GELAENDE
100
AcDbFace
 10
16.0
 20
28.0
 30
100.0191173676047
 11
18.0
 21
28.0
 31
99.97484197043063
 12
18.0
 22
30.0
 32
100.03479260809583
 13
16.0
 23
30.0
 33
100.07906800526989
  0
3DFACE
  5
BE
330
17
100
AcDbEntity
  8
GELAENDE
100
AcDbFace
 10
18.0
 20
0.0
 30
100.3882540867316
 11
20.0
 21
0.0
 31
100.32832700730069
 12
20.0
 22
2.0
 32
100.31819094149358
 13
18.0
 23
2.0
 33
100.3781180209245
  0
3DFACE
  5
BF
330
17
100
AcDbEntity
  8
GELAENDE
100
AcDbFace
 10
18.0
 20
2.0
 30
100.3781180209245
 11
20.0
 21
2.0
 31
100.31819094149358
 12
20.0
 22
4.0
 32
100.28854774676323
 13
18.0
 23
4.0
 33
100.34847482619415
  0
3DFACE
  5
C0
330
17
100
AcDbEntity
  8
GELAENDE
100
AcDbFace
 10
18.0
 20
4.0
 30
100.34847482619415
 11
20.0
 21
4.0
 31
100.28854774676323
 12
20.0
 22
6.0
 32
100.24036446217904
 13
18.0
 23
6.0
 33
100.30029154160997
  0
3DFACE
  5
C1
330
17
100
AcDbEntity
  8
GELAENDE
100
AcDbFace
 10
18.0
 20
6.0
 30
100.30029154160997
 11
20.0
 21
6.0
 31
100.24036446217904
 12
20.0
 22
8.0
 32
100.16009743012185
 13
18.0
 23
8.0
 33
100.22002450955277
  0
3DFACE
  5
C2
330
17
100
AcDbEntity
  8
GELAENDE
100
AcDbFace
 10
18.0
 20
8.0
 30
100.22002450955277
 11
20.0
 21
8.0
 31
100.16009743012185
 12
20.0
 22
10.0
 32
99.95785636430608
 13
18.0
 23
10.0
 33
100.017783443737
  0
3DFACE
  5
C3
330
17
100
AcDbEntity
  8
GELAENDE
100
AcDbFace
 10
18.0
 20
10.0
 30
100.017783443737
 11
20.0
 21
10.0
 31
99.95785636430608
 12
20.0
 22
12.0
 32
99.46699492100764
 13
18.0
 23
12.0
 33
99.52692200043856
  0
3DFACE
  5
C4
330
17
100
AcDbEntity
  8
GELAENDE
100
AcDbFace
 10
18.0
 20
12.0
 30
99.52692200043856
 11
20.0
 21
12.0
 31
99.46699492100764
 12
20.0
 22
14.0
 32
98.86835777406401
 13
18.0
 23
14.0
 33
98.92828485349493
  0
3DFACE
  5
C5
330
17
100
AcDbEntity
  8
GELAENDE
100
AcDbFace
 10
18.0
 20
14.0
 30
98.92828485349493
 11
20.0
 21
14.0
 31
98.86835777406401
 12
20.0
 22
16.0
 32
98.80850561674447
 13
18.0
 23
16.0
 33
98.86843269617539
  0
3DFACE
  5
C6
330
17
100
AcDbEntity
  8
GELAENDE
100
AcDbFace
 10
18.0
 20
16.0
 30
98.86843269617539
 11
20.0
 21
16.0
 31
98.80850561674447
 12
20.0
 22
18.0
 32
99.29229119240286
 13
18.0
 23
18.0
 33
99.35221827183378
  0
3DFACE
  5
C7
330
17
100
AcDbEntity
  8
GELAENDE
100
AcDbFace
 10
18.0
 20
18.0
 30
99.35221827183378
 11
20.0
 21
18.0
 31
99.29229119240286
 12
20.0
 22
20.0
 32
99.6824658396865
 13
18.0
 23
20.0
 33
99.74239291911742
  0
3DFACE
  5
C8
330
17
100
AcDbEntity
  8
GELAENDE
100
AcDbFace
 10
18.0
 20
20.0
 30
99.74239291911742
 11
20.0
 21
20.0
 31
99.6824658396865
 12
20.0
 22
22.0
 32
99.8063484531582
 13
18.0
 23
22.0
 33
99.86627553258911
  0
3DFACE
  5
C9
330
17
100
AcDbEntity
  8
GELAENDE
100
AcDbFace
 10
18.0
 20
22.0
 30
99.86627553258911
 11
20.0
 21
22.0
 31
99.8063484531582
 12
20.0
 22
24.0
 32
99.83693858878804
 13
18.0
 23
24.0
 33
99.89686566821896
  0
3DFACE
  5
CA
330
17
100
AcDbEntity
  8
GELAENDE
100
AcDbFace
 10
18.0
 20
24.0
 30
99.89686566821896
 11
20.0
 21
24.0
 31
99.83693858878804
 12
20.0
 22
26.0
 32
99.86815427788825
 13
18.0
 23
26.0
 33
99.92808135731917
  0
3DFACE
  5
CB
330
17
100
AcDbEntity
  8
GELAENDE
100
AcDbFace
 10
18.0
 20
26.0
 30
99.92808135731917
 11
20.0
 21
26.0
 31
99.86815427788825
 12
20.0
 22
28.0
 32
99.91491489099971
 13
18.0
 23
28.0
 33
99.97484197043063
  0
3DFACE
  5
CC
330
17
100
AcDbEntity
  8
GELAENDE
100
AcDbFace
 10
18.0
 20
28.0
 30
99.97484197043063
 11
20.0
 21
28.0
 31
99.91491489099971
 12
20.0
 22
30.0
 32
99.9748655286649
 13
18.0
 23
30.0
 33
100.03479260809583
  0
3DFACE
  5
CD
330
17
100
AcDbEntity
  8
GELAENDE
100
AcDbFace
 10
20.0
 20
0.0
 30
100.32832700730069
 11
22.0
 21
0.0
 31
100.2547118525606
 12
22.0
 22
2.0
 32
100.2445757867535
 13
20.0
 23
2.0
 33
100.31819094149358
  0
3DFACE
  5
CE
330
17
100
AcDbEntity
  8
GELAENDE
100
AcDbFace
 10
20.0
 20
2.0
 30
100.31819094149358
 11
22.0
 21
2.0
 31
100.2445757867535
 12
22.0
 22
4.0
 32
100.21493259202315
 13
20.0
 23
4.0
 33
100.28854774676323
  0
3DFACE
  5
CF
330
17
100
AcDbEntity
  8
GELAENDE
100
AcDbFace
 10
20.0
 20
4.0
 30
100.28854774676323
 11
22.0
 21
4.0
 31
100.21493259202315
 12
22.0
 22
6.0
 32
100.16674930743896
 13
20.0
 23
6.0
 33
100.24036446217904
  0
3DFACE
  5
D0
330
17
100
AcDbEntity
  8
GELAENDE
100
AcDbFace
 10
20.0
 20
6.0
 30
100.24036446217904
 11
22.0
 21
6.0
 31
100.16674930743896
 12
22.0
 22
8.0
 32
100.08648227538177
 13
20.0
 23
8.0
 33
100.16009743012185
  0
3DFACE
  5
D1
330
17
100
AcDbEntity
  8
GELAENDE
100
AcDbFace
 10
20.0
 20
8.0
 30
100.16009743012185
 11
22.0
 21
8.0
 31
100.08648227538177
 12
22.0
 22
10.0
 32
99.884241209566
 13
20.0
 23
10.0
 33
99.95785636430608
  0
3DFACE
  5
D2
330
17
100
AcDbEntity
  8
GELAENDE
100
AcDbFace
 10
20.0
 20
10.0
 30
99.95785636430608
 11
22.0
 21
10.0
 31
99.884241209566
 12
22.0
 22
12.0
 32
99.39337976626756
 13
20.0
 23
12.0
 33
99.46699492100764
  0
3DFACE
  5
D3
330
17
100
AcDbEntity
  8
GELAENDE
100
AcDbFace
 10
20.0
 20
12.0
 30
99.46699492100764
 11
22.0
 21
12.0
 31
99.39337976626756
 12
22.0
 22
14.0
 32
98.79474261932393
 13
20.0
 23
14.0
 33
98.86835777406401
  0
3DFACE
  5
D4
330
17
100
AcDbEntity
  8
GELAENDE
100
AcDbFace
 10
20.0
 20
14.0
 30
98.86835777406401
 11
22.0
 21
14.0
 31
98.79474261932393
 12
22.0
 22
16.0
 32
98.73489046200439
 13
20.0
 23
16.0
 33
98.80850561674447
  0
3DFACE
  5
D5
330
17
100
AcDbEntity
  8
GELAENDE
100
AcDbFace
 10
20.0
 20
16.0
 30
98.80850561674447
 11
22.0
 21
16.0
 31
98.73489046200439
 12
22.0
 22
18.0
 32
99.21867603766277
 13
20.0
 23
18.0
 33
99.29229119240286
  0
3DFACE
  5
D6
330
17
100
AcDbEntity
  8
GELAENDE
100
AcDbFace
 10
20.0
 20
18.0
 30
99.29229119240286
 11
22.0
 21
18.0
 31
99.21867603766277
 12
22.0
 22
20.0
 32
99.60885068494642
 13
20.0
 23
20.0
 33
99.6824658396865
  0
3DFACE
  5
D7
330
17
100
AcDbEntity
  8
GELAENDE
100
AcDbFace
 10
20.0
 20
20.0
 30
99.6824658396865
 11
22.0
 21
20.0
 31
99.60885068494642
 12
22.0
 22
22.0
 32
99.73273329841811
 13
20.0
 23
22.0
 33
99.8063484531582
  0
3DFACE
  5
D8
330
17
100
AcDbEntity
  8
GELAENDE
100
AcDbFace
 10
20.0
 20
22.0
 30
99.8063484531582
 11
22.0
 21
22.0
 31
99.73273329841811
 12
22.0
 22
24.0
 32
99.76332343404796
 13
20.0
 23
24.0
 33
99.83693858878804
  0
3DFACE
  5
D9
330
17
100
AcDbEntity
  8
GELAENDE
100
AcDbFace
 10
20.0
 20
24.0
 30
99.83693858878804
 11
22.0
 21
24.0
 31
99.76332343404796
 12
22.0
 22
26.0
 32
99.79453912314817
 13
20.0
 23
26.0
 33
99.86815427788825
  0
3DFACE
  5
DA
330
17
100
AcDbEntity
  8
GELAENDE
100
AcDbFace
 10
20.0
 20
26.0
 30
99.86815427788825
 11
22.0
 21
26.0
 31
99.79453912314817
 12
22.0
 22
28.0
 32
99.84129973625963
 13
20.0
 23
28.0
 33
99.91491489099971
  0
3DFACE
  5
DB
330
17
100
AcDbEntity
  8
GELAENDE
100
AcDbFace
 10
20.0
 20
28.0
 30
99.91491489099971
 11
22.0
 21
28.0
 31
99.84129973625963
 12
22.0
 22
30.0
 32
99.90125037392482
 13
20.0
 23
30.0
 33
99.9748655286649
  0
3DFACE
  5
DC
330
17
100
AcDbEntity
  8
GELAENDE
100
AcDbFace
 10
22.0
 20
0.0
 30
100.2547118525606
 11
24.0
 21
0.0
 31
100.17004540666515
 12
24.0
 22
2.0
 32
100.15990934085805
 13
22.0
 23
2.0
 33
100.2445757867535
  0
3DFACE
  5
DD
330
17
100
AcDbEntity
  8
GELAENDE
100
AcDbFace
 10
22.0
 20
2.0
 30
100.2445757867535
 11
24.0
 21
2.0
 31
100.15990934085805
 12
24.0
 22
4.0
 32
100.1302661461277
 13
22.0
 23
4.0
 33
100.21493259202315
  0
3DFACE
  5
DE
330
17
100
AcDbEntity
  8
GELAENDE
100
AcDbFace
 10
22.0
 20
4.0
 30
100.21493259202315
 11
24.0
 21
4.0
 31
100.1302661461277
 12
24.0
 22
6.0
 32
100.08208286154351
 13
22.0
 23
6.0
 33
100.16674930743896
  0
3DFACE
  5
DF
330
17
100
AcDbEntity
  8
GELAENDE
100
AcDbFace
 10
22.0
 20
6.0
 30
100.16674930743896
 11
24.0
 21
6.0
 31
100.08208286154351
 12
24.0
 22
8.0
 32
100.00181582948632
 13
22.0
 23
8.0
 33
100.08648227538177
  0
3DFACE
  5
E0
330
17
100
AcDbEntity
  8
GELAENDE
100
AcDbFace
 10
22.0
 20
8.0
 30
100.08648227538177
 11
24.0
 21
8.0
 31
100.00181582948632
 12
24.0
 22
10.0
 32
99.79957476367055
 13
22.0
 23
10.0
 33
99.884241209566
  0
3DFACE
  5
E1
330
17
100
AcDbEntity
  8
GELAENDE
100
AcDbFace
 10
22.0
 20
10.0
 30
99.884241209566
 11
24.0
 21
10.0
 31
99.79957476367055
 12
24.0
 22
12.0
 32
99.3087133203721
 13
22.0
 23
12.0
 33
99.39337976626756
  0
3DFACE
  5
E2
330
17
100
AcDbEntity
  8
GELAENDE
100
AcDbFace
 10
22.0
 20
12.0
 30
99.39337976626756
 11
24.0
 21
12.0
 31
99.3087133203721
 12
24.0
 22
14.0
 32
98.71007617342848
 13
22.0
 23
14.0
 33
98.79474261932393
  0
3DFACE
  5
E3
330
17
100
AcDbEntity
  8
GELAENDE
100
AcDbFace
 10
22.0
 20
14.0
 30
98.79474261932393
 11
24.0
 21
14.0
 31
98.71007617342848
 12
24.0
 22
16.0
 32
98.65022401610894
 13
22.0
 23
16.0
 33
98.73489046200439
  0
3DFACE
  5
E4
330
17
100
AcDbEntity
  8
GELAENDE
100
AcDbFace
 10
22.0
 20
16.0
 30
98.73489046200439
 11
24.0
 21
16.0
 31
98.65022401610894
 12
24.0
 22
18.0
 32
99.13400959176732
 13
22.0
 23
18.0
 33
99.21867603766277
  0
3DFACE
  5
E5
330
17
100
AcDbEntity
  8
GELAENDE
100
AcDbFace
 10
22.0
 20
18.0
 30
99.21867603766277
 11
24.0
 21
18.0
 31
99.13400959176732
 12
24.0
 22
20.0
 32
99.52418423905097
 13
22.0
 23
20.0
 33
99.60885068494642
  0
3DFACE
  5
E6
330
17
100
AcDbEntity
  8
GELAENDE
100
AcDbFace
 10
22.0
 20
20.0
 30
99.60885068494642
 11
24.0
 21
20.0
 31
99.52418423905097
 12
24.0
 22
22.0
 32
99.64806685252266
 13
22.0
 23
22.0
 33
99.73273329841811
  0
3DFACE
  5
E7
330
17
100
AcDbEntity
  8
GELAENDE
100
AcDbFace
 10
22.0
 20
22.0
 30
99.73273329841811
 11
24.0
 21
22.0
 31
99.64806685252266
 12
24.0
 22
24.0
 32
99.67865698815251
 13
22.0
 23
24.0
 33
99.76332343404796
  0
3DFACE
  5
E8
330
17
100
AcDbEntity
  8
GELAENDE
100
AcDbFace
 10
22.0
 20
24.0
 30
99.76332343404796
 11
24.0
 21
24.0
 31
99.67865698815251
 12
24.0
 22
26.0
 32
99.70987267725272
 13
22.0
 23
26.0
 33
99.79453912314817
  0
3DFACE
  5
E9
330
17
100
AcDbEntity
  8
GELAENDE
100
AcDbFace
 10
22.0
 20
26.0
 30
99.79453912314817
 11
24.0
 21
26.0
 31
99.70987267725272
 12
24.0
 22
28.0
 32
99.75663329036418
 13
22.0
 23
28.0
 33
99.84129973625963
  0
3DFACE
  5
EA
330
17
100
AcDbEntity
  8
GELAENDE
100
AcDbFace
 10
22.0
 20
28.0
 30
99.84129973625963
 11
24.0
 21
28.0
 31
99.75663329036418
 12
24.0
 22
30.0
 32
99.81658392802937
 13
22.0
 23
30.0
 33
99.90125037392482
  0
3DFACE
  5
EB
330
17
100
AcDbEntity
  8
GELAENDE
100
AcDbFace
 10
24.0
 20
0.0
 30
100.17004540666515
 11
26.0
 21
0.0
 31
100.0775079543798
 12
26.0
 22
2.0
 32
100.0673718885727
 13
24.0
 23
2.0
 33
100.15990934085805
  0
3DFACE
  5
EC
330
17
100
AcDbEntity
  8
GELAENDE
100
AcDbFace
 10
24.0
 20
2.0
 30
100.15990934085805
 11
26.0
 21
2.0
 31
100.0673718885727
 12
26.0
 22
4.0
 32
100.03772869384234
 13
24.0
 23
4.0
 33
100.1302661461277
  0
3DFACE
  5
ED
330
17
100
AcDbEntity
  8
GELAENDE
100
AcDbFace
 10
24.0
 20
4.0
 30
100.1302661461277
 11
26.0
 21
4.0
 31
100.03772869384234
 12
26.0
 22
6.0
 32
99.98954540925816
 13
24.0
 23
6.0
 33
100.08208286154351
  0
3DFACE
  5
EE
330
17
100
AcDbEntity
  8
GELAENDE
100
AcDbFace
 10
24.0
 20
6.0
 30
100.08208286154351
 11
26.0
 21
6.0
 31
99.98954540925816
 12
26.0
 22
8.0
 32
99.90927837720096
 13
24.0
 23
8.0
 33
100.00181582948632
  0
3DFACE
  5
EF
330
17
100
AcDbEntity
  8
GELAENDE
100
AcDbFace
 10
24.0
 20
8.0
 30
100.00181582948632
 11
26.0
 21
8.0
 31
99.90927837720096
 12
26.0
 22
10.0
 32
99.70703731138519
 13
24.0
 23
10.0
 33
99.79957476367055
  0
3DFACE
  5
F0
330
17
100
AcDbEntity
  8
GELAENDE
100
AcDbFace
 10
24.0
 20
10.0
 30
99.79957476367055
 11
26.0
 21
10.0
 31
99.70703731138519
 12
26.0
 22
12.0
 32
99.21617586808675
 13
24.0
 23
12.0
 33
99.3087133203721
  0
3DFACE
  5
F1
330
17
100
AcDbEntity
  8
GELAENDE
100
AcDbFace
 10
24.0
 20
12.0
 30
99.3087133203721
 11
26.0
 21
12.0
 31
99.21617586808675
 12
26.0
 22
14.0
 32
98.61753872114312
 13
24.0
 23
14.0
 33
98.71007617342848
  0
3DFACE
  5
F2
330
17
100
AcDbEntity
  8
GELAENDE
100
AcDbFace
 10
24.0
 20
14.0
 30
98.71007617342848
 11
26.0
 21
14.0
 31
98.61753872114312
 12
26.0
 22
16.0
 32
98.55768656382358
 13
24.0
 23
16.0
 33
98.65022401610894
  0
3DFACE
  5
F3
330
17
100
AcDbEntity
  8
GELAENDE
100
AcDbFace
 10
24.0
 20
16.0
 30
98.65022401610894
 11
26.0
 21
16.0
 31
98.55768656382358
 12
26.0
 22
18.0
 32
99.04147213948197
 13
24.0
 23
18.0
 33
99.13400959176732
  0
3DFACE
  5
F4
330
17
100
AcDbEntity
  8
GELAENDE
100
AcDbFace
 10
24.0
 20
18.0
 30
99.13400959176732
 11
26.0
 21
18.0
 31
99.04147213948197
 12
26.0
 22
20.0
 32
99.43164678676561
 13
24.0
 23
20.0
 33
99.52418423905097
  0
3DFACE
  5
F5
330
17
100
AcDbEntity
  8
GELAENDE
100
AcDbFace
 10
24.0
 20
20.0
 30
99.52418423905097
 11
26.0
 21
20.0
 31
99.43164678676561
 12
26.0
 22
22.0
 32
99.5555294002373
 13
24.0
 23
22.0
 33
99.64806685252266
  0
3DFACE
  5
F6
330
17
100
AcDbEntity
  8
GELAENDE
100
AcDbFace
 10
24.0
 20
22.0
 30
99.64806685252266
 11
26.0
 21
22.0
 31
99.5555294002373
 12
26.0
 22
24.0
 32
99.58611953586716
 13
24.0
 23
24.0
 33
99.67865698815251
  0
3DFACE
  5
F7
330
17
100
AcDbEntity
  8
GELAENDE
100
AcDbFace
 10
24.0
 20
24.0
 30
99.67865698815251
 11
26.0
 21
24.0
 31
99.58611953586716
 12
26.0
 22
26.0
 32
99.61733522496736
 13
24.0
 23
26.0
 33
99.70987267725272
  0
3DFACE
  5
F8
330
17
100
AcDbEntity
  8
GELAENDE
100
AcDbFace
 10
24.0
 20
26.0
 30
99.70987267725272
 11
26.0
 21
26.0
 31
99.61733522496736
 12
26.0
 22
28.0
 32
99.66409583807882
 13
24.0
 23
28.0
 33
99.75663329036418
  0
3DFACE
  5
F9
330
17
100
AcDbEntity
  8
GELAENDE
100
AcDbFace
 10
24.0
 20
28.0
 30
99.75663329036418
 11
26.0
 21
28.0
 31
99.66409583807882
 12
26.0
 22
30.0
 32
99.72404647574402
 13
24.0
 23
30.0
 33
99.81658392802937
  0
3DFACE
  5
FA
330
17
100
AcDbEntity
  8
GELAENDE
100
AcDbFace
 10
26.0
 20
0.0
 30
100.0775079543798
 11
28.0
 21
0.0
 31
99.98066687522007
 12
28.0
 22
2.0
 32
99.97053080941296
 13
26.0
 23
2.0
 33
100.0673718885727
  0
3DFACE
  5
FB
330
17
100
AcDbEntity
  8
GELAENDE
100
AcDbFace
 10
26.0
 20
2.0
 30
100.0673718885727
 11
28.0
 21
2.0
 31
99.97053080941296
 12
28.0
 22
4.0
 32
99.94088761468261
 13
26.0
 23
4.0
 33
100.03772869384234
  0
3DFACE
  5
FC
330
17
100
AcDbEntity
  8
GELAENDE
100
AcDbFace
 10
26.0
 20
4.0
 30
100.03772869384234
 11
28.0
 21
4.0
 31
99.94088761468261
 12
28.0
 22
6.0
 32
99.89270433009843
 13
26.0
 23
6.0
 33
99.98954540925816
  0
3DFACE
  5
FD
330
17
100
AcDbEntity
  8
GELAENDE
100
AcDbFace
 10
26.0
 20
6.0
 30
99.98954540925816
 11
28.0
 21
6.0
 31
99.89270433009843
 12
28.0
 22
8.0
 32
99.81243729804123
 13
26.0
 23
8.0
 33
99.90927837720096
  0
3DFACE
  5
FE
330
17
100
AcDbEntity
  8
GELAENDE
100
AcDbFace
 10
26.0
 20
8.0
 30
99.90927837720096
 11
28.0
 21
8.0
 31
99.81243729804123
 12
28.0
 22
10.0
 32
99.61019623222546
 13
26.0
 23
10.0
 33
99.70703731138519
  0
3DFACE
  5
FF
330
17
100
AcDbEntity
  8
GELAENDE
100
AcDbFace
 10
26.0
 20
10.0
 30
99.70703731138519
 11
28.0
 21
10.0
 31
99.61019623222546
 12
28.0
 22
12.0
 32
99.11933478892702
 13
26.0
 23
12.0
 33
99.21617586808675
  0
3DFACE
  5
100
330
17
100
AcDbEntity
  8
GELAENDE
100
AcDbFace
 10
26.0
 20
12.0
 30
99.21617586808675
 11
28.0
 21
12.0
 31
99.11933478892702
 12
28.0
 22
14.0
 32
98.52069764198339
 13
26.0
 23
14.0
 33
98.61753872114312
  0
3DFACE
  5
101
330
17
100
AcDbEntity
  8
GELAENDE
100
AcDbFace
 10
26.0
 20
14.0
 30
98.61753872114312
 11
28.0
 21
14.0
 31
98.52069764198339
 12
28.0
 22
16.0
 32
98.46084548466385
 13
26.0
 23
16.0
 33
98.55768656382358
  0
3DFACE
  5
102
330
17
100
AcDbEntity
  8
GELAENDE
100
AcDbFace
 10
26.0
 20
16.0
 30
98.55768656382358
 11
28.0
 21
16.0
 31
98.46084548466385
 12
28.0
 22
18.0
 32
98.94463106032224
 13
26.0
 23
18.0
 33
99.04147213948197
  0
3DFACE
  5
103
330
17
100
AcDbEntity
  8
GELAENDE
100
AcDbFace
 10
26.0
 20
18.0
 30
99.04147213948197
 11
28.0
 21
18.0
 31
98.94463106032224
 12
28.0
 22
20.0
 32
99.33480570760588
 13
26.0
 23
20.0
 33
99.43164678676561
  0
3DFACE
  5
104
330
17
100
AcDbEntity
  8
GELAENDE
100
AcDbFace
 10
26.0
 20
20.0
 30
99.43164678676561
 11
28.0
 21
20.0
 31
99.33480570760588
 12
28.0
 22
22.0
 32
99.45868832107757
 13
26.0
 23
22.0
 33
99.5555294002373
  0
3DFACE
  5
105
330
17
100
AcDbEntity
  8
GELAENDE
100
AcDbFace
 10
26.0
 20
22.0
 30
99.5555294002373
 11
28.0
 21
22.0
 31
99.45868832107757
 12
28.0
 22
24.0
 32
99.48927845670742
 13
26.0
 23
24.0
 33
99.58611953586716
  0
3DFACE
  5
106
330
17
100
AcDbEntity
  8
GELAENDE
100
AcDbFace
 10
26.0
 20
24.0
 30
99.58611953586716
 11
28.0
 21
24.0
 31
99.48927845670742
 12
28.0
 22
26.0
 32
99.52049414580763
 13
26.0
 23
26.0
 33
99.61733522496736
  0
3DFACE
  5
107
330
17
100
AcDbEntity
  8
GELAENDE
100
AcDbFace
 10
26.0
 20
26.0
 30
99.61733522496736
 11
28.0
 21
26.0
 31
99.52049414580763
 12
28.0
 22
28.0
 32
99.56725475891909
 13
26.0
 23
28.0
 33
99.66409583807882
  0
3DFACE
  5
108
330
17
100
AcDbEntity
  8
GELAENDE
100
AcDbFace
 10
26.0
 20
28.0
 30
99.66409583807882
 11
28.0
 21
28.0
 31
99.56725475891909
 12
28.0
 22
30.0
 32
99.62720539658429
 13
26.0
 23
30.0
 33
99.72404647574402
  0
3DFACE
  5
109
330
17
100
AcDbEntity
  8
GELAENDE
100
AcDbFace
 10
28.0
 20
0.0
 30
99.98066687522007
 11
30.0
 21
0.0
 31
99.8833012003362
 12
30.0
 22
2.0
 32
99.8731651345291
 13
28.0
 23
2.0
 33
99.97053080941296
  0
3DFACE
  5
10A
330
17
100
AcDbEntity
  8
GELAENDE
100
AcDbFace
 10
28.0
 20
2.0
 30
99.97053080941296
 11
30.0
 21
2.0
 31
99.8731651345291
 12
30.0
 22
4.0
 32
99.84352193979875
 13
28.0
 23
4.0
 33
99.94088761468261
  0
3DFACE
  5
10B
330
17
100
AcDbEntity
  8
GELAENDE
100
AcDbFace
 10
28.0
 20
4.0
 30
99.94088761468261
 11
30.0
 21
4.0
 31
99.84352193979875
 12
30.0
 22
6.0
 32
99.79533865521456
 13
28.0
 23
6.0
 33
99.89270433009843
  0
3DFACE
  5
10C
330
17
100
AcDbEntity
  8
GELAENDE
100
AcDbFace
 10
28.0
 20
6.0
 30
99.89270433009843
 11
30.0
 21
6.0
 31
99.79533865521456
 12
30.0
 22
8.0
 32
99.71507162315737
 13
28.0
 23
8.0
 33
99.81243729804123
  0
3DFACE
  5
10D
330
17
100
AcDbEntity
  8
GELAENDE
100
AcDbFace
 10
28.0
 20
8.0
 30
99.81243729804123
 11
30.0
 21
8.0
 31
99.71507162315737
 12
30.0
 22
10.0
 32
99.5128305573416
 13
28.0
 23
10.0
 33
99.61019623222546
  0
3DFACE
  5
10E
330
17
100
AcDbEntity
  8
GELAENDE
100
AcDbFace
 10
28.0
 20
10.0
 30
99.61019623222546
 11
30.0
 21
10.0
 31
99.5128305573416
 12
30.0
 22
12.0
 32
99.02196911404316
 13
28.0
 23
12.0
 33
99.11933478892702
  0
3DFACE
  5
10F
330
17
100
AcDbEntity
  8
GELAENDE
100
AcDbFace
 10
28.0
 20
12.0
 30
99.11933478892702
 11
30.0
 21
12.0
 31
99.02196911404316
 12
30.0
 22
14.0
 32
98.42333196709953
 13
28.0
 23
14.0
 33
98.52069764198339
  0
3DFACE
  5
110
330
17
100
AcDbEntity
  8
GELAENDE
100
AcDbFace
 10
28.0
 20
14.0
 30
98.52069764198339
 11
30.0
 21
14.0
 31
98.42333196709953
 12
30.0
 22
16.0
 32
98.36347980977999
 13
28.0
 23
16.0
 33
98.46084548466385
  0
3DFACE
  5
111
330
17
100
AcDbEntity
  8
GELAENDE
100
AcDbFace
 10
28.0
 20
16.0
 30
98.46084548466385
 11
30.0
 21
16.0
 31
98.36347980977999
 12
30.0
 22
18.0
 32
98.84726538543838
 13
28.0
 23
18.0
 33
98.94463106032224
  0
3DFACE
  5
112
330
17
100
AcDbEntity
  8
GELAENDE
100
AcDbFace
 10
28.0
 20
18.0
 30
98.94463106032224
 11
30.0
 21
18.0
 31
98.84726538543838
 12
30.0
 22
20.0
 32
99.23744003272202
 13
28.0
 23
20.0
 33
99.33480570760588
  0
3DFACE
  5
113
330
17
100
AcDbEntity
  8
GELAENDE
100
AcDbFace
 10
28.0
 20
20.0
 30
99.33480570760588
 11
30.0
 21
20.0
 31
99.23744003272202
 12
30.0
 22
22.0
 32
99.36132264619371
 13
28.0
 23
22.0
 33
99.45868832107757
  0
3DFACE
  5
114
330
17
100
AcDbEntity
  8
GELAENDE
100
AcDbFace
 10
28.0
 20
22.0
 30
99.45868832107757
 11
30.0
 21
22.0
 31
99.36132264619371
 12
30.0
 22
24.0
 32
99.39191278182356
 13
28.0
 23
24.0
 33
99.48927845670742
  0
3DFACE
  5
115
330
17
100
AcDbEntity
  8
GELAENDE
100
AcDbFace
 10
28.0
 20
24.0
 30
99.48927845670742
 11
30.0
 21
24.0
 31
99.39191278182356
 12
30.0
 22
26.0
 32
99.42312847092377
 13
28.0
 23
26.0
 33
99.52049414580763
  0
3DFACE
  5
116
330
17
100
AcDbEntity
  8
GELAENDE
100
AcDbFace
 10
28.0
 20
26.0
 30
99.52049414580763
 11
30.0
 21
26.0
 31
99.42312847092377
 12
30.0
 22
28.0
 32
99.46988908403523
 13
28.0
 23
28.0
 33
99.56725475891909
  0
3DFACE
  5
117
330
17
100
AcDbEntity
  8
GELAENDE
100
AcDbFace
 10
28.0
 20
28.0
 30
99.56725475891909
 11
30.0
 21
28.0
 31
99.46988908403523
 12
30.0
 22
30.0
 32
99.52983972170043
 13
28.0
 23
30.0
 33
99.62720539658429
  0
3DFACE
  5
118
330
17
100
AcDbEntity
  8
GELAENDE
100
AcDbFace
 10
30.0
 20
0.0
 30
99.8833012003362
 11
32.0
 21
0.0
 31
99.78921576040658
 12
32.0
 22
2.0
 32
99.77907969459947
 13
30.0
 23
2.0
 33
99.8731651345291
  0
3DFACE
  5
119
330
17
100
AcDbEntity
  8
GELAENDE
100
AcDbFace
 10
30.0
 20
2.0
 30
99.8731651345291
 11
32.0
 21
2.0
 31
99.77907969459947
 12
32.0
 22
4.0
 32
99.74943649986912
 13
30.0
 23
4.0
 33
99.84352193979875
  0
3DFACE
  5
11A
330
17
100
AcDbEntity
  8
GELAENDE
100
AcDbFace
 10
30.0
 20
4.0
 30
99.84352193979875
 11
32.0
 21
4.0
 31
99.74943649986912
 12
32.0
 22
6.0
 32
99.70125321528494
 13
30.0
 23
6.0
 33
99.79533865521456
  0
3DFACE
  5
11B
330
17
100
AcDbEntity
  8
GELAENDE
100
AcDbFace
 10
30.0
 20
6.0
 30
99.79533865521456
 11
32.0
 21
6.0
 31
99.70125321528494
 12
32.0
 22
8.0
 32
99.62098618322774
 13
30.0
 23
8.0
 33
99.71507162315737
  0
3DFACE
  5
11C
330
17
100
AcDbEntity
  8
GELAENDE
100
AcDbFace
 10
30.0
 20
8.0
 30
99.71507162315737
 11
32.0
 21
8.0
 31
99.62098618322774
 12
32.0
 22
10.0
 32
99.41874511741197
 13
30.0
 23
10.0
 33
99.5128305573416
  0
3DFACE
  5
11D
330
17
100
AcDbEntity
  8
GELAENDE
100
AcDbFace
 10
30.0
 20
10.0
 30
99.5128305573416
 11
32.0
 21
10.0
 31
99.41874511741197
 12
32.0
 22
12.0
 32
98.92788367411353
 13
30.0
 23
12.0
 33
99.02196911404316
  0
3DFACE
  5
11E
330
17
100
AcDbEntity
  8
GELAENDE
100
AcDbFace
 10
30.0
 20
12.0
 30
99.02196911404316
 11
32.0
 21
12.0
 31
98.92788367411353
 12
32.0
 22
14.0
 32
98.3292465271699
 13
30.0
 23
14.0
 33
98.42333196709953
  0
3DFACE
  5
11F
330
17
100
AcDbEntity
  8
GELAENDE
100
AcDbFace
 10
30.0
 20
14.0
 30
98.42333196709953
 11
32.0
 21
14.0
 31
98.3292465271699
 12
32.0
 22
16.0
 32
98.26939436985036
 13
30.0
 23
16.0
 33
98.36347980977999
  0
3DFACE
  5
120
330
17
100
AcDbEntity
  8
GELAENDE
100
AcDbFace
 10
30.0
 20
16.0
 30
98.36347980977999
 11
32.0
 21
16.0
 31
98.26939436985036
 12
32.0
 22
18.0
 32
98.75317994550875
 13
30.0
 23
18.0
 33
98.84726538543838
  0
3DFACE
  5
121
330
17
100
AcDbEntity
  8
GELAENDE
100
AcDbFace
 10
30.0
 20
18.0
 30
98.84726538543838
 11
32.0
 21
18.0
 31
98.75317994550875
 12
32.0
 22
20.0
 32
99.14335459279239
 13
30.0
 23
20.0
 33
99.23744003272202
  0
3DFACE
  5
122
330
17
100
AcDbEntity
  8
GELAENDE
100
AcDbFace
 10
30.0
 20
20.0
 30
99.23744003272202
 11
32.0
 21
20.0
 31
99.14335459279239
 12
32.0
 22
22.0
 32
99.26723720626408
 13
30.0
 23
22.0
 33
99.36132264619371
  0
3DFACE
  5
123
330
17
100
AcDbEntity
  8
GELAENDE
100
AcDbFace
 10
30.0
 20
22.0
 30
99.36132264619371
 11
32.0
 21
22.0
 31
99.26723720626408
 12
32.0
 22
24.0
 32
99.29782734189394
 13
30.0
 23
24.0
 33
99.39191278182356
  0
3DFACE
  5
124
330
17
100
AcDbEntity
  8
GELAENDE
100
AcDbFace
 10
30.0
 20
24.0
 30
99.39191278182356
 11
32.0
 21
24.0
 31
99.29782734189394
 12
32.0
 22
26.0
 32
99.32904303099414
 13
30.0
 23
26.0
 33
99.42312847092377
  0
3DFACE
  5
125
330
17
100
AcDbEntity
  8
GELAENDE
100
AcDbFace
 10
30.0
 20
26.0
 30
99.42312847092377
 11
32.0
 21
26.0
 31
99.32904303099414
 12
32.0
 22
28.0
 32
99.3758036441056
 13
30.0
 23
28.0
 33
99.46988908403523
  0
3DFACE
  5
126
330
17
100
AcDbEntity
  8
GELAENDE
100
AcDbFace
 10
30.0
 20
28.0
 30
99.46988908403523
 11
32.0
 21
28.0
 31
99.3758036441056
 12
32.0
 22
30.0
 32
99.4357542817708
 13
30.0
 23
30.0
 33
99.52983972170043
  0
3DFACE
  5
127
330
17
100
AcDbEntity
  8
GELAENDE
100
AcDbFace
 10
32.0
 20
0.0
 30
99.78921576040658
 11
34.0
 21
0.0
 31
99.70205406471467
 12
34.0
 22
2.0
 32
99.69191799890757
 13
32.0
 23
2.0
 33
99.77907969459947
  0
3DFACE
  5
128
330
17
100
AcDbEntity
  8
GELAENDE
100
AcDbFace
 10
32.0
 20
2.0
 30
99.77907969459947
 11
34.0
 21
2.0
 31
99.69191799890757
 12
34.0
 22
4.0
 32
99.66227480417722
 13
32.0
 23
4.0
 33
99.74943649986912
  0
3DFACE
  5
129
330
17
100
AcDbEntity
  8
GELAENDE
100
AcDbFace
 10
32.0
 20
4.0
 30
99.74943649986912
 11
34.0
 21
4.0
 31
99.66227480417722
 12
34.0
 22
6.0
 32
99.61409151959303
 13
32.0
 23
6.0
 33
99.70125321528494
  0
3DFACE
  5
12A
330
17
100
AcDbEntity
  8
GELAENDE
100
AcDbFace
 10
32.0
 20
6.0
 30
99.70125321528494
 11
34.0
 21
6.0
 31
99.61409151959303
 12
34.0
 22
8.0
 32
99.53382448753584
 13
32.0
 23
8.0
 33
99.62098618322774
  0
3DFACE
  5
12B
330
17
100
AcDbEntity
  8
GELAENDE
100
AcDbFace
 10
32.0
 20
8.0
 30
99.62098618322774
 11
34.0
 21
8.0
 31
99.53382448753584
 12
34.0
 22
10.0
 32
99.33158342172007
 13
32.0
 23
10.0
 33
99.41874511741197
  0
3DFACE
  5
12C
330
17
100
AcDbEntity
  8
GELAENDE
100
AcDbFace
 10
32.0
 20
10.0
 30
99.41874511741197
 11
34.0
 21
10.0
 31
99.33158342172007
 12
34.0
 22
12.0
 32
98.84072197842163
 13
32.0
 23
12.0
 33
98.92788367411353
  0
3DFACE
  5
12D
330
17
100
AcDbEntity
  8
GELAENDE
100
AcDbFace
 10
32.0
 20
12.0
 30
98.92788367411353
 11
34.0
 21
12.0
 31
98.84072197842163
 12
34.0
 22
14.0
 32
98.242084831478
 13
32.0
 23
14.0
 33
98.3292465271699
  0
3DFACE
  5
12E
330
17
100
AcDbEntity
  8
GELAENDE
100
AcDbFace
 10
32.0
 20
14.0
 30
98.3292465271699
 11
34.0
 21
14.0
 31
98.242084831478
 12
34.0
 22
16.0
 32
98.18223267415846
 13
32.0
 23
16.0
 33
98.26939436985036
  0
3DFACE
  5
12F
330
17
100
AcDbEntity
  8
GELAENDE
100
AcDbFace
 10
32.0
 20
16.0
 30
98.26939436985036
 11
34.0
 21
16.0
 31
98.18223267415846
 12
34.0
 22
18.0
 32
98.66601824981684
 13
32.0
 23
18.0
 33
98.75317994550875
  0
3DFACE
  5
130
330
17
100
AcDbEntity
  8
GELAENDE
100
AcDbFace
 10
32.0
 20
18.0
 30
98.75317994550875
 11
34.0
 21
18.0
 31
98.66601824981684
 12
34.0
 22
20.0
 32
99.05619289710049
 13
32.0
 23
20.0
 33
99.14335459279239
  0
3DFACE
  5
131
330
17
100
AcDbEntity
  8
GELAENDE
100
AcDbFace
 10
32.0
 20
20.0
 30
99.14335459279239
 11
34.0
 21
20.0
 31
99.05619289710049
 12
34.0
 22
22.0
 32
99.18007551057218
 13
32.0
 23
22.0
 33
99.26723720626408
  0
3DFACE
  5
132
330
17
100
AcDbEntity
  8
GELAENDE
100
AcDbFace
 10
32.0
 20
22.0
 30
99.26723720626408
 11
34.0
 21
22.0
 31
99.18007551057218
 12
34.0
 22
24.0
 32
99.21066564620203
 13
32.0
 23
24.0
 33
99.29782734189394
  0
3DFACE
  5
133
330
17
100
AcDbEntity
  8
GELAENDE
100
AcDbFace
 10
32.0
 20
24.0
 30
99.29782734189394
 11
34.0
 21
24.0
 31
99.21066564620203
 12
34.0
 22
26.0
 32
99.24188133530224
 13
32.0
 23
26.0
 33
99.32904303099414
  0
3DFACE
  5
134
330
17
100
AcDbEntity
  8
GELAENDE
100
AcDbFace
 10
32.0
 20
26.0
 30
99.32904303099414
 11
34.0
 21
26.0
 31
99.24188133530224
 12
34.0
 22
28.0
 32
99.2886419484137
 13
32.0
 23
28.0
 33
99.3758036441056
  0
3DFACE
  5
135
330
17
100
AcDbEntity
  8
GELAENDE
100
AcDbFace
 10
32.0
 20
28.0
 30
99.3758036441056
 11
34.0
 21
28.0
 31
99.2886419484137
 12
34.0
 22
30.0
 32
99.3485925860789
 13
32.0
 23
30.0
 33
99.4357542817708
  0
3DFACE
  5
136
330
17
100
AcDbEntity
  8
GELAENDE
100
AcDbFace
 10
34.0
 20
0.0
 30
99.70205406471467
 11
36.0
 21
0.0
 31
99.62511911398485
 12
36.0
 22
2.0
 32
99.61498304817775
 13
34.0
 23
2.0
 33
99.69191799890757
  0
3DFACE
  5
137
330
17
100
AcDbEntity
  8
GELAENDE
100
AcDbFace
 10
34.0
 20
2.0
 30
99.69191799890757
 11
36.0
 21
2.0
 31
99.61498304817775
 12
36.0
 22
4.0
 32
99.5853398534474
 13
34.0
 23
4.0
 33
99.66227480417722
  0
3DFACE
  5
138
330
17
100
AcDbEntity
  8
GELAENDE
100
AcDbFace
 10
34.0
 20
4.0
 30
99.66227480417722
 11
36.0
 21
4.0
 31
99.5853398534474
 12
36.0
 22
6.0
 32
99.53715656886321
 13
34.0
 23
6.0
 33
99.61409151959303
  0
3DFACE
  5
139
330
17
100
AcDbEntity
  8
GELAENDE
100
AcDbFace
 10
34.0
 20
6.0
 30
99.61409151959303
 11
36.0
 21
6.0
 31
99.53715656886321
 12
36.0
 22
8.0
 32
99.45688953680602
 13
34.0
 23
8.0
 33
99.53382448753584
  0
3DFACE
  5
13A
330
17
100
AcDbEntity
  8
GELAENDE
100
AcDbFace
 10
34.0
 20
8.0
 30
99.53382448753584
 11
36.0
 21
8.0
 31
99.45688953680602
 12
36.0
 22
10.0
 32
99.25464847099025
 13
34.0
 23
10.0
 33
99.33158342172007
  0
3DFACE
  5
13B
330
17
100
AcDbEntity
  8
GELAENDE
100
AcDbFace
 10
34.0
 20
10.0
 30
99.33158342172007
 11
36.0
 21
10.0
 31
99.25464847099025
 12
36.0
 22
12.0
 32
98.7637870276918
 13
34.0
 23
12.0
 33
98.84072197842163
  0
3DFACE
  5
13C
330
17
100
AcDbEntity
  8
GELAENDE
100
AcDbFace
 10
34.0
 20
12.0
 30
98.84072197842163
 11
36.0
 21
12.0
 31
98.7637870276918
 12
36.0
 22
14.0
 32
98.16514988074817
 13
34.0
 23
14.0
 33
98.242084831478
  0
3DFACE
  5
13D
330
17
100
AcDbEntity
  8
GELAENDE
100
AcDbFace
 10
34.0
 20
14.0
 30
98.242084831478
 11
36.0
 21
14.0
 31
98.16514988074817
 12
36.0
 22
16.0
 32
98.10529772342863
 13
34.0
 23
16.0
 33
98.18223267415846
  0
3DFACE
  5
13E
330
17
100
AcDbEntity
  8
GELAENDE
100
AcDbFace
 10
34.0
 20
16.0
 30
98.18223267415846
 11
36.0
 21
16.0
 31
98.10529772342863
 12
36.0
 22
18.0
 32
98.58908329908702
 13
34.0
 23
18.0
 33
98.66601824981684
  0
3DFACE
  5
13F
330
17
100
AcDbEntity
  8
GELAENDE
100
AcDbFace
 10
34.0
 20
18.0
 30
98.66601824981684
 11
36.0
 21
18.0
 31
98.58908329908702
 12
36.0
 22
20.0
 32
98.97925794637067
 13
34.0
 23
20.0
 33
99.05619289710049
  0
3DFACE
  5
140
330
17
100
AcDbEntity
  8
GELAENDE
100
AcDbFace
 10
34.0
 20
20.0
 30
99.05619289710049
 11
36.0
 21
20.0
 31
98.97925794637067
 12
36.0
 22
22.0
 32
99.10314055984236
 13
34.0
 23
22.0
 33
99.18007551057218
  0
3DFACE
  5
141
330
17
100
AcDbEntity
  8
GELAENDE
100
AcDbFace
 10
34.0
 20
22.0
 30
99.18007551057218
 11
36.0
 21
22.0
 31
99.10314055984236
 12
36.0
 22
24.0
 32
99.13373069547221
 13
34.0
 23
24.0
 33
99.21066564620203
  0
3DFACE
  5
142
330
17
100
AcDbEntity
  8
GELAENDE
100
AcDbFace
 10
34.0
 20
24.0
 30
99.21066564620203
 11
36.0
 21
24.0
 31
99.13373069547221
 12
36.0
 22
26.0
 32
99.16494638457242
 13
34.0
 23
26.0
 33
99.24188133530224
  0
3DFACE
  5
143
330
17
100
AcDbEntity
  8
GELAENDE
100
AcDbFace
 10
34.0
 20
26.0
 30
99.24188133530224
 11
36.0
 21
26.0
 31
99.16494638457242
 12
36.0
 22
28.0
 32
99.21170699768388
 13
34.0
 23
28.0
 33
99.2886419484137
  0
3DFACE
  5
144
330
17
100
AcDbEntity
  8
GELAENDE
100
AcDbFace
 10
34.0
 20
28.0
 30
99.2886419484137
 11
36.0
 21
28.0
 31
99.21170699768388
 12
36.0
 22
30.0
 32
99.27165763534907
 13
34.0
 23
30.0
 33
99.3485925860789
  0
3DFACE
  5
145
330
17
100
AcDbEntity
  8
GELAENDE
100
AcDbFace
 10
36.0
 20
0.0
 30
99.62511911398485
 11
38.0
 21
0.0
 31
99.5612109593707
 12
38.0
 22
2.0
 32
99.5510748935636
 13
36.0
 23
2.0
 33
99.61498304817775
  0
3DFACE
  5
146
330
17
100
AcDbEntity
  8
GELAENDE
100
AcDbFace
 10
36.0
 20
2.0
 30
99.61498304817775
 11
38.0
 21
2.0
 31
99.5510748935636
 12
38.0
 22
4.0
 32
99.52143169883324
 13
36.0
 23
4.0
 33
99.5853398534474
  0
3DFACE
  5
147
330
17
100
AcDbEntity
  8
GELAENDE
100
AcDbFace
 10
36.0
 20
4.0
 30
99.5853398534474
 11
38.0
 21
4.0
 31
99.52143169883324
 12
38.0
 22
6.0
 32
99.47324841424906
 13
36.0
 23
6.0
 33
99.53715656886321
  0
3DFACE
  5
148
330
17
100
AcDbEntity
  8
GELAENDE
100
AcDbFace
 10
36.0
 20
6.0
 30
99.53715656886321
 11
38.0
 21
6.0
 31
99.47324841424906
 12
38.0
 22
8.0
 32
99.39298138219186
 13
36.0
 23
8.0
 33
99.45688953680602
  0
3DFACE
  5
149
330
17
100
AcDbEntity
  8
GELAENDE
100
AcDbFace
 10
36.0
 20
8.0
 30
99.45688953680602
 11
38.0
 21
8.0
 31
99.39298138219186
 12
38.0
 22
10.0
 32
99.1907403163761
 13
36.0
 23
10.0
 33
99.25464847099025
  0
3DFACE
  5
14A
330
17
100
AcDbEntity
  8
GELAENDE
100
AcDbFace
 10
36.0
 20
10.0
 30
99.25464847099025
 11
38.0
 21
10.0
 31
99.1907403163761
 12
38.0
 22
12.0
 32
98.69987887307765
 13
36.0
 23
12.0
 33
98.7637870276918
  0
3DFACE
  5
14B
330
17
100
AcDbEntity
  8
GELAENDE
100
AcDbFace
 10
36.0
 20
12.0
 30
98.7637870276918
 11
38.0
 21
12.0
 31
98.69987887307765
 12
38.0
 22
14.0
 32
98.10124172613402
 13
36.0
 23
14.0
 33
98.16514988074817
  0
3DFACE
  5
14C
330
17
100
AcDbEntity
  8
GELAENDE
100
AcDbFace
 10
36.0
 20
14.0
 30
98.16514988074817
 11
38.0
 21
14.0
 31
98.10124172613402
 12
38.0
 22
16.0
 32
98.04138956881448
 13
36.0
 23
16.0
 33
98.10529772342863
  0
3DFACE
  5
14D
330
17
100
AcDbEntity
  8
GELAENDE
100
AcDbFace
 10
36.0
 20
16.0
 30
98.10529772342863
 11
38.0
 21
16.0
 31
98.04138956881448
 12
38.0
 22
18.0
 32
98.52517514447287
 13
36.0
 23
18.0
 33
98.58908329908702
  0
3DFACE
  5
14E
330
17
100
AcDbEntity
  8
GELAENDE
100
AcDbFace
 10
36.0
 20
18.0
 30
98.58908329908702
 11
38.0
 21
18.0
 31
98.52517514447287
 12
38.0
 22
20.0
 32
98.91534979175651
 13
36.0
 23
20.0
 33
98.97925794637067
  0
3DFACE
  5
14F
330
17
100
AcDbEntity
  8
GELAENDE
100
AcDbFace
 10
36.0
 20
20.0
 30
98.97925794637067
 11
38.0
 21
20.0
 31
98.91534979175651
 12
38.0
 22
22.0
 32
99.0392324052282
 13
36.0
 23
22.0
 33
99.10314055984236
  0
3DFACE
  5
150
330
17
100
AcDbEntity
  8
GELAENDE
100
AcDbFace
 10
36.0
 20
22.0
 30
99.10314055984236
 11
38.0
 21
22.0
 31
99.0392324052282
 12
38.0
 22
24.0
 32
99.06982254085806
 13
36.0
 23
24.0
 33
99.13373069547221
  0
3DFACE
  5
151
330
17
100
AcDbEntity
  8
GELAENDE
100
AcDbFace
 10
36.0
 20
24.0
 30
99.13373069547221
 11
38.0
 21
24.0
 31
99.06982254085806
 12
38.0
 22
26.0
 32
99.10103822995826
 13
36.0
 23
26.0
 33
99.16494638457242
  0
3DFACE
  5
152
330
17
100
AcDbEntity
  8
GELAENDE
100
AcDbFace
 10
36.0
 20
26.0
 30
99.16494638457242
 11
38.0
 21
26.0
 31
99.10103822995826
 12
38.0
 22
28.0
 32
99.14779884306972
 13
36.0
 23
28.0
 33
99.21170699768388
  0
3DFACE
  5
153
330
17
100
AcDbEntity
  8
GELAENDE
100
AcDbFace
 10
36.0
 20
28.0
 30
99.21170699768388
 11
38.0
 21
28.0
 31
99.14779884306972
 12
38.0
 22
30.0
 32
99.20774948073492
 13
36.0
 23
30.0
 33
99.27165763534907
  0
3DFACE
  5
154
330
17
100
AcDbEntity
  8
GELAENDE
100
AcDbFace
 10
38.0
 20
0.0
 30
99.5612109593707
 11
40.0
 21
0.0
 31
99.51248899641755
 12
40.0
 22
2.0
 32
99.50235293061044
 13
38.0
 23
2.0
 33
99.5510748935636
  0
3DFACE
  5
155
330
17
100
AcDbEntity
  8
GELAENDE
100
AcDbFace
 10
38.0
 20
2.0
 30
99.5510748935636
 11
40.0
 21
2.0
 31
99.50235293061044
 12
40.0
 22
4.0
 32
99.47270973588009
 13
38.0
 23
4.0
 33
99.52143169883324
  0
3DFACE
  5
156
330
17
100
AcDbEntity
  8
GELAENDE
100
AcDbFace
 10
38.0
 20
4.0
 30
99.52143169883324
 11
40.0
 21
4.0
 31
99.47270973588009
 12
40.0
 22
6.0
 32
99.4245264512959
 13
38.0
 23
6.0
 33
99.47324841424906
  0
3DFACE
  5
157
330
17
100
AcDbEntity
  8
GELAENDE
100
AcDbFace
 10
38.0
 20
6.0
 30
99.47324841424906
 11
40.0
 21
6.0
 31
99.4245264512959
 12
40.0
 22
8.0
 32
99.34425941923871
 13
38.0
 23
8.0
 33
99.39298138219186
  0
3DFACE
  5
158
330
17
100
AcDbEntity
  8
GELAENDE
100
AcDbFace
 10
38.0
 20
8.0
 30
99.39298138219186
 11
40.0
 21
8.0
 31
99.34425941923871
 12
40.0
 22
10.0
 32
99.14201835342294
 13
38.0
 23
10.0
 33
99.1907403163761
  0
3DFACE
  5
159
330
17
100
AcDbEntity
  8
GELAENDE
100
AcDbFace
 10
38.0
 20
10.0
 30
99.1907403163761
 11
40.0
 21
10.0
 31
99.14201835342294
 12
40.0
 22
12.0
 32
98.6511569101245
 13
38.0
 23
12.0
 33
98.69987887307765
  0
3DFACE
  5
15A
330
17
100
AcDbEntity
  8
GELAENDE
100
AcDbFace
 10
38.0
 20
12.0
 30
98.69987887307765
 11
40.0
 21
12.0
 31
98.6511569101245
 12
40.0
 22
14.0
 32
98.05251976318087
 13
38.0
 23
14.0
 33
98.10124172613402
  0
3DFACE
  5
15B
330
17
100
AcDbEntity
  8
GELAENDE
100
AcDbFace
 10
38.0
 20
14.0
 30
98.10124172613402
 11
40.0
 21
14.0
 31
98.05251976318087
 12
40.0
 22
16.0
 32
97.99266760586133
 13
38.0
 23
16.0
 33
98.04138956881448
  0
3DFACE
  5
15C
330
17
100
AcDbEntity
  8
GELAENDE
100
AcDbFace
 10
38.0
 20
16.0
 30
98.04138956881448
 11
40.0
 21
16.0
 31
97.99266760586133
 12
40.0
 22
18.0
 32
98.47645318151972
 13
38.0
 23
18.0
 33
98.52517514447287
  0
3DFACE
  5
15D
330
17
100
AcDbEntity
  8
GELAENDE
100
AcDbFace
 10
38.0
 20
18.0
 30
98.52517514447287
 11
40.0
 21
18.0
 31
98.47645318151972
 12
40.0
 22
20.0
 32
98.86662782880336
 13
38.0
 23
20.0
 33
98.91534979175651
  0
3DFACE
  5
15E
330
17
100
AcDbEntity
  8
GELAENDE
100
AcDbFace
 10
38.0
 20
20.0
 30
98.91534979175651
 11
40.0
 21
20.0
 31
98.86662782880336
 12
40.0
 22
22.0
 32
98.99051044227505
 13
38.0
 23
22.0
 33
99.0392324052282
  0
3DFACE
  5
15F
330
17
100
AcDbEntity
  8
GELAENDE
100
AcDbFace
 10
38.0
 20
22.0
 30
99.0392324052282
 11
40.0
 21
22.0
 31
98.99051044227505
 12
40.0
 22
24.0
 32
99.0211005779049
 13
38.0
 23
24.0
 33
99.06982254085806
  0
3DFACE
  5
160
330
17
100
AcDbEntity
  8
GELAENDE
100
AcDbFace
 10
38.0
 20
24.0
 30
99.06982254085806
 11
40.0
 21
24.0
 31
99.0211005779049
 12
40.0
 22
26.0
 32
99.05231626700511
 13
38.0
 23
26.0
 33
99.10103822995826
  0
3DFACE
  5
161
330
17
100
AcDbEntity
  8
GELAENDE
100
AcDbFace
 10
38.0
 20
26.0
 30
99.10103822995826
 11
40.0
 21
26.0
 31
99.05231626700511
 12
40.0
 22
28.0
 32
99.09907688011657
 13
38.0
 23
28.0
 33
99.14779884306972
  0
3DFACE
  5
162
330
17
100
AcDbEntity
  8
GELAENDE
100
AcDbFace
 10
38.0
 20
28.0
 30
99.14779884306972
 11
40.0
 21
28.0
 31
99.09907688011657
 12
40.0
 22
30.0
 32
99.15902751778177
 13
38.0
 23
30.0
 33
99.20774948073492
  0
3DFACE
  5
163
330
17
100
AcDbEntity
  8
GELAENDE
100
AcDbFace
 10
40.0
 20
0.0
 30
99.51248899641755
 11
42.0
 21
0.0
 31
99.48036576635835
 12
42.0
 22
2.0
 32
99.47022970055124
 13
40.0
 23
2.0
 33
99.50235293061044
  0
3DFACE
  5
164
330
17
100
AcDbEntity
  8
GELAENDE
100
AcDbFace
 10
40.0
 20
2.0
 30
99.50235293061044
 11
42.0
 21
2.0
 31
99.47022970055124
 12
42.0
 22
4.0
 32
99.44058650582089
 13
40.0
 23
4.0
 33
99.47270973588009
  0
3DFACE
  5
165
330
17
100
AcDbEntity
  8
GELAENDE
100
AcDbFace
 10
40.0
 20
4.0
 30
99.47270973588009
 11
42.0
 21
4.0
 31
99.44058650582089
 12
42.0
 22
6.0
 32
99.3924032212367
 13
40.0
 23
6.0
 33
99.4245264512959
  0
3DFACE
  5
166
330
17
100
AcDbEntity
  8
GELAENDE
100
AcDbFace
 10
40.0
 20
6.0
 30
99.4245264512959
 11
42.0
 21
6.0
 31
99.3924032212367
 12
42.0
 22
8.0
 32
99.31213618917951
 13
40.0
 23
8.0
 33
99.34425941923871
  0
3DFACE
  5
167
330
17
100
AcDbEntity
  8
GELAENDE
100
AcDbFace
 10
40.0
 20
8.0
 30
99.34425941923871
 11
42.0
 21
8.0
 31
99.31213618917951
 12
42.0
 22
10.0
 32
99.10989512336374
 13
40.0
 23
10.0
 33
99.14201835342294
  0
3DFACE
  5
168
330
17
100
AcDbEntity
  8
GELAENDE
100
AcDbFace
 10
40.0
 20
10.0
 30
99.14201835342294
 11
42.0
 21
10.0
 31
99.10989512336374
 12
42.0
 22
12.0
 32
98.6190336800653
 13
40.0
 23
12.0
 33
98.6511569101245
  0
3DFACE
  5
169
330
17
100
AcDbEntity
  8
GELAENDE
100
AcDbFace
 10
40.0
 20
12.0
 30
98.6511569101245
 11
42.0
 21
12.0
 31
98.6190336800653
 12
42.0
 22
14.0
 32
98.02039653312167
 13
40.0
 23
14.0
 33
98.05251976318087
  0
3DFACE
  5
16A
330
17
100
AcDbEntity
  8
GELAENDE
100
AcDbFace
 10
40.0
 20
14.0
 30
98.05251976318087
 11
42.0
 21
14.0
 31
98.02039653312167
 12
42.0
 22
16.0
 32
97.96054437580213
 13
40.0
 23
16.0
 33
97.99266760586133
  0
3DFACE
  5
16B
330
17
100
AcDbEntity
  8
GELAENDE
100
AcDbFace
 10
40.0
 20
16.0
 30
97.99266760586133
 11
42.0
 21
16.0
 31
97.96054437580213
 12
42.0
 22
18.0
 32
98.44432995146052
 13
40.0
 23
18.0
 33
98.47645318151972
  0
3DFACE
  5
16C
330
17
100
AcDbEntity
  8
GELAENDE
100
AcDbFace
 10
40.0
 20
18.0
 30
98.47645318151972
 11
42.0
 21
18.0
 31
98.44432995146052
 12
42.0
 22
20.0
 32
98.83450459874416
 13
40.0
 23
20.0
 33
98.86662782880336
  0
3DFACE
  5
16D
330
17
100
AcDbEntity
  8
GELAENDE
100
AcDbFace
 10
40.0
 20
20.0
 30
98.86662782880336
 11
42.0
 21
20.0
 31
98.83450459874416
 12
42.0
 22
22.0
 32
98.95838721221585
 13
40.0
 23
22.0
 33
98.99051044227505
  0
3DFACE
  5
16E
330
17
100
AcDbEntity
  8
GELAENDE
100
AcDbFace
 10
40.0
 20
22.0
 30
98.99051044227505
 11
42.0
 21
22.0
 31
98.95838721221585
 12
42.0
 22
24.0
 32
98.9889773478457
 13
40.0
 23
24.0
 33
99.0211005779049
  0
3DFACE
  5
16F
330
17
100
AcDbEntity
  8
GELAENDE
100
AcDbFace
 10
40.0
 20
24.0
 30
99.0211005779049
 11
42.0
 21
24.0
 31
98.9889773478457
 12
42.0
 22
26.0
 32
99.02019303694591
 13
40.0
 23
26.0
 33
99.05231626700511
  0
3DFACE
  5
170
330
17
100
AcDbEntity
  8
GELAENDE
100
AcDbFace
 10
40.0
 20
26.0
 30
99.05231626700511
 11
42.0
 21
26.0
 31
99.02019303694591
 12
42.0
 22
28.0
 32
99.06695365005737
 13
40.0
 23
28.0
 33
99.09907688011657
  0
3DFACE
  5
171
330
17
100
AcDbEntity
  8
GELAENDE
100
AcDbFace
 10
40.0
 20
28.0
 30
99.09907688011657
 11
42.0
 21
28.0
 31
99.06695365005737
 12
42.0
 22
30.0
 32
99.12690428772257
 13
40.0
 23
30.0
 33
99.15902751778177
  0
3DFACE
  5
172
330
17
100
AcDbEntity
  8
GELAENDE
100
AcDbFace
 10
42.0
 20
0.0
 30
99.48036576635835
 11
44.0
 21
0.0
 31
99.465437487577
 12
44.0
 22
2.0
 32
99.4553014217699
 13
42.0
 23
2.0
 33
99.47022970055124
  0
3DFACE
  5
173
330
17
100
AcDbEntity
  8
GELAENDE
100
AcDbFace
 10
42.0
 20
2.0
 30
99.47022970055124
 11
44.0
 21
2.0
 31
99.4553014217699
 12
44.0
 22
4.0
 32
99.42565822703955
 13
42.0
 23
4.0
 33
99.44058650582089
  0
3DFACE
  5
174
330
17
100
AcDbEntity
  8
GELAENDE
100
AcDbFace
 10
42.0
 20
4.0
 30
99.44058650582089
 11
44.0
 21
4.0
 31
99.42565822703955
 12
44.0
 22
6.0
 32
99.37747494245536
 13
42.0
 23
6.0
 33
99.3924032212367
  0
3DFACE
  5
175
330
17
100
AcDbEntity
  8
GELAENDE
100
AcDbFace
 10
42.0
 20
6.0
 30
99.3924032212367
 11
44.0
 21
6.0
 31
99.37747494245536
 12
44.0
 22
8.0
 32
99.29720791039817
 13
42.0
 23
8.0
 33
99.31213618917951
  0
3DFACE
  5
176
330
17
100
AcDbEntity
  8
GELAENDE
100
AcDbFace
 10
42.0
 20
8.0
 30
99.31213618917951
 11
44.0
 21
8.0
 31
99.29720791039817
 12
44.0
 22
10.0
 32
99.0949668445824
 13
42.0
 23
10.0
 33
99.10989512336374
  0
3DFACE
  5
177
330
17
100
AcDbEntity
  8
GELAENDE
100
AcDbFace
 10
42.0
 20
10.0
 30
99.10989512336374
 11
44.0
 21
10.0
 31
99.0949668445824
 12
44.0
 22
12.0
 32
98.60410540128396
 13
42.0
 23
12.0
 33
98.6190336800653
  0
3DFACE
  5
178
330
17
100
AcDbEntity
  8
GELAENDE
100
AcDbFace
 10
42.0
 20
12.0
 30
98.6190336800653
 11
44.0
 21
12.0
 31
98.60410540128396
 12
44.0
 22
14.0
 32
98.00546825434033
 13
42.0
 23
14.0
 33
98.02039653312167
  0
3DFACE
  5
179
330
17
100
AcDbEntity
  8
GELAENDE
100
AcDbFace
 10
42.0
 20
14.0
 30
98.02039653312167
 11
44.0
 21
14.0
 31
98.00546825434033
 12
44.0
 22
16.0
 32
97.94561609702079
 13
42.0
 23
16.0
 33
97.96054437580213
  0
3DFACE
  5
17A
330
17
100
AcDbEntity
  8
GELAENDE
100
AcDbFace
 10
42.0
 20
16.0
 30
97.96054437580213
 11
44.0
 21
16.0
 31
97.94561609702079
 12
44.0
 22
18.0
 32
98.42940167267918
 13
42.0
 23
18.0
 33
98.44432995146052
  0
3DFACE
  5
17B
330
17
100
AcDbEntity
  8
GELAENDE
100
AcDbFace
 10
42.0
 20
18.0
 30
98.44432995146052
 11
44.0
 21
18.0
 31
98.42940167267918
 12
44.0
 22
20.0
 32
98.81957631996282
 13
42.0
 23
20.0
 33
98.83450459874416
  0
3DFACE
  5
17C
330
17
100
AcDbEntity
  8
GELAENDE
100
AcDbFace
 10
42.0
 20
20.0
 30
98.83450459874416
 11
44.0
 21
20.0
 31
98.81957631996282
 12
44.0
 22
22.0
 32
98.94345893343451
 13
42.0
 23
22.0
 33
98.95838721221585
  0
3DFACE
  5
17D
330
17
100
AcDbEntity
  8
GELAENDE
100
AcDbFace
 10
42.0
 20
22.0
 30
98.95838721221585
 11
44.0
 21
22.0
 31
98.94345893343451
 12
44.0
 22
24.0
 32
98.97404906906436
 13
42.0
 23
24.0
 33
98.9889773478457
  0
3DFACE
  5
17E
330
17
100
AcDbEntity
  8
GELAENDE
100
AcDbFace
 10
42.0
 20
24.0
 30
98.9889773478457
 11
44.0
 21
24.0
 31
98.97404906906436
 12
44.0
 22
26.0
 32
99.00526475816457
 13
42.0
 23
26.0
 33
99.02019303694591
  0
3DFACE
  5
17F
330
17
100
AcDbEntity
  8
GELAENDE
100
AcDbFace
 10
42.0
 20
26.0
 30
99.02019303694591
 11
44.0
 21
26.0
 31
99.00526475816457
 12
44.0
 22
28.0
 32
99.05202537127603
 13
42.0
 23
28.0
 33
99.06695365005737
  0
3DFACE
  5
180
330
17
100
AcDbEntity
  8
GELAENDE
100
AcDbFace
 10
42.0
 20
28.0
 30
99.06695365005737
 11
44.0
 21
28.0
 31
99.05202537127603
 12
44.0
 22
30.0
 32
99.11197600894123
 13
42.0
 23
30.0
 33
99.12690428772257
  0
3DFACE
  5
181
330
17
100
AcDbEntity
  8
GELAENDE
100
AcDbFace
 10
44.0
 20
0.0
 30
99.465437487577
 11
46.0
 21
0.0
 31
99.46745473369013
 12
46.0
 22
2.0
 32
99.45731866788303
 13
44.0
 23
2.0
 33
99.4553014217699
  0
3DFACE
  5
182
330
17
100
AcDbEntity
  8
GELAENDE
100
AcDbFace
 10
44.0
 20
2.0
 30
99.4553014217699
 11
46.0
 21
2.0
 31
99.45731866788303
 12
46.0
 22
4.0
 32
99.42767547315268
 13
44.0
 23
4.0
 33
99.42565822703955
  0
3DFACE
  5
183
330
17
100
AcDbEntity
  8
GELAENDE
100
AcDbFace
 10
44.0
 20
4.0
 30
99.42565822703955
 11
46.0
 21
4.0
 31
99.42767547315268
 12
46.0
 22
6.0
 32
99.37949218856849
 13
44.0
 23
6.0
 33
99.37747494245536
  0
3DFACE
  5
184
330
17
100
AcDbEntity
  8
GELAENDE
100
AcDbFace
 10
44.0
 20
6.0
 30
99.37747494245536
 11
46.0
 21
6.0
 31
99.37949218856849
 12
46.0
 22
8.0
 32
99.2992251565113
 13
44.0
 23
8.0
 33
99.29720791039817
  0
3DFACE
  5
185
330
17
100
AcDbEntity
  8
GELAENDE
100
AcDbFace
 10
44.0
 20
8.0
 30
99.29720791039817
 11
46.0
 21
8.0
 31
99.2992251565113
 12
46.0
 22
10.0
 32
99.09698409069553
 13
44.0
 23
10.0
 33
99.0949668445824
  0
3DFACE
  5
186
330
17
100
AcDbEntity
  8
GELAENDE
100
AcDbFace
 10
44.0
 20
10.0
 30
99.0949668445824
 11
46.0
 21
10.0
 31
99.09698409069553
 12
46.0
 22
12.0
 32
98.60612264739709
 13
44.0
 23
12.0
 33
98.60410540128396
  0
3DFACE
  5
187
330
17
100
AcDbEntity
  8
GELAENDE
100
AcDbFace
 10
44.0
 20
12.0
 30
98.60410540128396
 11
46.0
 21
12.0
 31
98.60612264739709
 12
46.0
 22
14.0
 32
98.00748550045346
 13
44.0
 23
14.0
 33
98.00546825434033
  0
3DFACE
  5
188
330
17
100
AcDbEntity
  8
GELAENDE
100
AcDbFace
 10
44.0
 20
14.0
 30
98.00546825434033
 11
46.0
 21
14.0
 31
98.00748550045346
 12
46.0
 22
16.0
 32
97.94763334313392
 13
44.0
 23
16.0
 33
97.94561609702079
  0
3DFACE
  5
189
330
17
100
AcDbEntity
  8
GELAENDE
100
AcDbFace
 10
44.0
 20
16.0
 30
97.94561609702079
 11
46.0
 21
16.0
 31
97.94763334313392
 12
46.0
 22
18.0
 32
98.4314189187923
 13
44.0
 23
18.0
 33
98.42940167267918
  0
3DFACE
  5
18A
330
17
100
AcDbEntity
  8
GELAENDE
100
AcDbFace
 10
44.0
 20
18.0
 30
98.42940167267918
 11
46.0
 21
18.0
 31
98.4314189187923
 12
46.0
 22
20.0
 32
98.82159356607595
 13
44.0
 23
20.0
 33
98.81957631996282
  0
3DFACE
  5
18B
330
17
100
AcDbEntity
  8
GELAENDE
100
AcDbFace
 10
44.0
 20
20.0
 30
98.81957631996282
 11
46.0
 21
20.0
 31
98.82159356607595
 12
46.0
 22
22.0
 32
98.94547617954764
 13
44.0
 23
22.0
 33
98.94345893343451
  0
3DFACE
  5
18C
330
17
100
AcDbEntity
  8
GELAENDE
100
AcDbFace
 10
44.0
 20
22.0
 30
98.94345893343451
 11
46.0
 21
22.0
 31
98.94547617954764
 12
46.0
 22
24.0
 32
98.97606631517749
 13
44.0
 23
24.0
 33
98.97404906906436
  0
3DFACE
  5
18D
330
17
100
AcDbEntity
  8
GELAENDE
100
AcDbFace
 10
44.0
 20
24.0
 30
98.97404906906436
 11
46.0
 21
24.0
 31
98.97606631517749
 12
46.0
 22
26.0
 32
99.0072820042777
 13
44.0
 23
26.0
 33
99.00526475816457
  0
3DFACE
  5
18E
330
17
100
AcDbEntity
  8
GELAENDE
100
AcDbFace
 10
44.0
 20
26.0
 30
99.00526475816457
 11
46.0
 21
26.0
 31
99.0072820042777
 12
46.0
 22
28.0
 32
99.05404261738916
 13
44.0
 23
28.0
 33
99.05202537127603
  0
3DFACE
  5
18F
330
17
100
AcDbEntity
  8
GELAENDE
100
AcDbFace
 10
44.0
 20
28.0
 30
99.05202537127603
 11
46.0
 21
28.0
 31
99.05404261738916
 12
46.0
 22
30.0
 32
99.11399325505435
 13
44.0
 23
30.0
 33
99.11197600894123
  0
3DFACE
  5
190
330
17
100
AcDbEntity
  8
GELAENDE
100
AcDbFace
 10
46.0
 20
0.0
 30
99.46745473369013
 11
48.0
 21
0.0
 31
99.48533470029396
 12
48.0
 22
2.0
 32
99.47519863448686
 13
46.0
 23
2.0
 33
99.45731866788303
  0
3DFACE
  5
191
330
17
100
AcDbEntity
  8
GELAENDE
100
AcDbFace
 10
46.0
 20
2.0
 30
99.45731866788303
 11
48.0
 21
2.0
 31
99.47519863448686
 12
48.0
 22
4.0
 32
99.4455554397565
 13
46.0
 23
4.0
 33
99.42767547315268
  0
3DFACE
  5
192
330
17
100
AcDbEntity
  8
GELAENDE
100
AcDbFace
 10
46.0
 20
4.0
 30
99.42767547315268
 11
48.0
 21
4.0
 31
99.4455554397565
 12
48.0
 22
6.0
 32
99.39737215517232
 13
46.0
 23
6.0
 33
99.37949218856849
  0
3DFACE
  5
193
330
17
100
AcDbEntity
  8
GELAENDE
100
AcDbFace
 10
46.0
 20
6.0
 30
99.37949218856849
 11
48.0
 21
6.0
 31
99.39737215517232
 12
48.0
 22
8.0
 32
99.31710512311513
 13
46.0
 23
8.0
 33
99.2992251565113
  0
3DFACE
  5
194
330
17
100
AcDbEntity
  8
GELAENDE
100
AcDbFace
 10
46.0
 20
8.0
 30
99.2992251565113
 11
48.0
 21
8.0
 31
99.31710512311513
 12
48.0
 22
10.0
 32
99.11486405729936
 13
46.0
 23
10.0
 33
99.09698409069553
  0
3DFACE
  5
195
330
17
100
AcDbEntity
  8
GELAENDE
100
AcDbFace
 10
46.0
 20
10.0
 30
99.09698409069553
 11
48.0
 21
10.0
 31
99.11486405729936
 12
48.0
 22
12.0
 32
98.62400261400091
 13
46.0
 23
12.0
 33
98.60612264739709
  0
3DFACE
  5
196
330
17
100
AcDbEntity
  8
GELAENDE
100
AcDbFace
 10
46.0
 20
12.0
 30
98.60612264739709
 11
48.0
 21
12.0
 31
98.62400261400091
 12
48.0
 22
14.0
 32
98.02536546705728
 13
46.0
 23
14.0
 33
98.00748550045346
  0
3DFACE
  5
197
330
17
100
AcDbEntity
  8
GELAENDE
100
AcDbFace
 10
46.0
 20
14.0
 30
98.00748550045346
 11
48.0
 21
14.0
 31
98.02536546705728
 12
48.0
 22
16.0
 32
97.96551330973774
 13
46.0
 23
16.0
 33
97.94763334313392
  0
3DFACE
  5
198
330
17
100
AcDbEntity
  8
GELAENDE
100
AcDbFace
 10
46.0
 20
16.0
 30
97.94763334313392
 11
48.0
 21
16.0
 31
97.96551330973774
 12
48.0
 22
18.0
 32
98.44929888539613
 13
46.0
 23
18.0
 33
98.4314189187923
  0
3DFACE
  5
199
330
17
100
AcDbEntity
  8
GELAENDE
100
AcDbFace
 10
46.0
 20
18.0
 30
98.4314189187923
 11
48.0
 21
18.0
 31
98.44929888539613
 12
48.0
 22
20.0
 32
98.83947353267978
 13
46.0
 23
20.0
 33
98.82159356607595
  0
3DFACE
  5
19A
330
17
100
AcDbEntity
  8
GELAENDE
100
AcDbFace
 10
46.0
 20
20.0
 30
98.82159356607595
 11
48.0
 21
20.0
 31
98.83947353267978
 12
48.0
 22
22.0
 32
98.96335614615147
 13
46.0
 23
22.0
 33
98.94547617954764
  0
3DFACE
  5
19B
330
17
100
AcDbEntity
  8
GELAENDE
100
AcDbFace
 10
46.0
 20
22.0
 30
98.94547617954764
 11
48.0
 21
22.0
 31
98.96335614615147
 12
48.0
 22
24.0
 32
98.99394628178132
 13
46.0
 23
24.0
 33
98.97606631517749
  0
3DFACE
  5
19C
330
17
100
AcDbEntity
  8
GELAENDE
100
AcDbFace
 10
46.0
 20
24.0
 30
98.97606631517749
 11
48.0
 21
24.0
 31
98.99394628178132
 12
48.0
 22
26.0
 32
99.02516197088153
 13
46.0
 23
26.0
 33
99.0072820042777
  0
3DFACE
  5
19D
330
17
100
AcDbEntity
  8
GELAENDE
100
AcDbFace
 10
46.0
 20
26.0
 30
99.0072820042777
 11
48.0
 21
26.0
 31
99.02516197088153
 12
48.0
 22
28.0
 32
99.07192258399299
 13
46.0
 23
28.0
 33
99.05404261738916
  0
3DFACE
  5
19E
330
17
100
AcDbEntity
  8
GELAENDE
100
AcDbFace
 10
46.0
 20
28.0
 30
99.05404261738916
 11
48.0
 21
28.0
 31
99.07192258399299
 12
48.0
 22
30.0
 32
99.13187322165818
 13
46.0
 23
30.0
 33
99.11399325505435
  0
POLYLINE
  5
19F
330
17
100
AcDbEntity
  8
MAUER_LINKS
100
AcDbPolyFaceMesh
 66
1
 10
0.0
 20
0.0
 30
0.0
 70
64
 71
8
 72
12
  0
VERTEX
  5
1A1
330
17
100
AcDbEntity
  8
MAUER_LINKS
100
AcDbVertex
100
AcDbPolyFaceMeshVertex
 10
14.0
 20
10.8
 30
101.6448453640101
 70
192
  0
VERTEX
  5
1A2
330
17
100
AcDbEntity
  8
MAUER_LINKS
100
AcDbVertex
100
AcDbPolyFaceMeshVertex
 10
14.0
 20
11.2
 30
101.6448453640101
 70
192
  0
VERTEX
  5
1A3
330
17
100
AcDbEntity
  8
MAUER_LINKS
100
AcDbVertex
100
AcDbPolyFaceMeshVertex
 10
14.0
 20
10.8
 30
99.1448453640101
 70
192
  0
VERTEX
  5
1A5
330
17
100
AcDbEntity
  8
MAUER_LINKS
100
AcDbVertex
100
AcDbPolyFaceMeshVertex
 10
34.0
 20
10.8
 30
99.1448453640101
 70
192
  0
VERTEX
  5
1AB
330
17
100
AcDbEntity
  8
MAUER_LINKS
100
AcDbVertex
100
AcDbPolyFaceMeshVertex
 10
14.0
 20
11.2
 30
99.1448453640101
 70
192
  0
VERTEX
  5
1B2
330
17
100
AcDbEntity
  8
MAUER_LINKS
100
AcDbVertex
100
AcDbPolyFaceMeshVertex
 10
34.0
 20
11.2
 30
101.6448453640101
 70
192
  0
VERTEX
  5
1B5
330
17
100
AcDbEntity
  8
MAUER_LINKS
100
AcDbVertex
100
AcDbPolyFaceMeshVertex
 10
34.0
 20
10.8
 30
101.6448453640101
 70
192
  0
VERTEX
  5
1C1
330
17
100
AcDbEntity
  8
MAUER_LINKS
100
AcDbVertex
100
AcDbPolyFaceMeshVertex
 10
34.0
 20
11.2
 30
99.1448453640101
 70
192
  0
VERTEX
  5
1A4
330
17
100
AcDbEntity
  8
MAUER_LINKS
100
AcDbFaceRecord
 10
0.0
 20
0.0
 30
0.0
 70
128
 71
1
 72
2
 73
3
  0
VERTEX
  5
1A8
330
17
100
AcDbEntity
  8
MAUER_LINKS
100
AcDbFaceRecord
 10
0.0
 20
0.0
 30
0.0
 70
128
 71
4
 72
1
 73
3
  0
VERTEX
  5
1AC
330
17
100
AcDbEntity
  8
MAUER_LINKS
100
AcDbFaceRecord
 10
0.0
 20
0.0
 30
0.0
 70
128
 71
3
 72
2
 73
5
  0
VERTEX
  5
1B0
330
17
100
AcDbEntity
  8
MAUER_LINKS
100
AcDbFaceRecord
 10
0.0
 20
0.0
 30
0.0
 70
128
 71
5
 72
4
 73
3
  0
VERTEX
  5
1B4
330
17
100
AcDbEntity
  8
MAUER_LINKS
100
AcDbFaceRecord
 10
0.0
 20
0.0
 30
0.0
 70
128
 71
1
 72
6
 73
2
  0
VERTEX
  5
1B8
330
17
100
AcDbEntity
  8
MAUER_LINKS
100
AcDbFaceRecord
 10
0.0
 20
0.0
 30
0.0
 70
128
 71
7
 72
1
 73
4
  0
VERTEX
  5
1BC
330
17
100
AcDbEntity
  8
MAUER_LINKS
100
AcDbFaceRecord
 10
0.0
 20
0.0
 30
0.0
 70
128
 71
7
 72
6
 73
1
  0
VERTEX
  5
1C0
330
17
100
AcDbEntity
  8
MAUER_LINKS
100
AcDbFaceRecord
 10
0.0
 20
0.0
 30
0.0
 70
128
 71
2
 72
6
 73
5
  0
VERTEX
  5
1C4
330
17
100
AcDbEntity
  8
MAUER_LINKS
100
AcDbFaceRecord
 10
0.0
 20
0.0
 30
0.0
 70
128
 71
8
 72
4
 73
5
  0
VERTEX
  5
1C8
330
17
100
AcDbEntity
  8
MAUER_LINKS
100
AcDbFaceRecord
 10
0.0
 20
0.0
 30
0.0
 70
128
 71
5
 72
6
 73
8
  0
VERTEX
  5
1CC
330
17
100
AcDbEntity
  8
MAUER_LINKS
100
AcDbFaceRecord
 10
0.0
 20
0.0
 30
0.0
 70
128
 71
8
 72
7
 73
4
  0
VERTEX
  5
1D0
330
17
100
AcDbEntity
  8
MAUER_LINKS
100
AcDbFaceRecord
 10
0.0
 20
0.0
 30
0.0
 70
128
 71
6
 72
7
 73
8
  0
SEQEND
  5
1A0
330
19F
100
AcDbEntity
  8
MAUER_LINKS
  0
POLYLINE
  5
1D1
330
17
100
AcDbEntity
  8
MAUER_RECHTS
100
AcDbPolyFaceMesh
 66
1
 10
0.0
 20
0.0
 30
0.0
 70
64
 71
8
 72
12
  0
VERTEX
  5
1D3
330
17
100
AcDbEntity
  8
MAUER_RECHTS
100
AcDbVertex
100
AcDbPolyFaceMeshVertex
 10
14.0
 20
18.8
 30
101.6448453640101
 70
192
  0
VERTEX
  5
1D4
330
17
100
AcDbEntity
  8
MAUER_RECHTS
100
AcDbVertex
100
AcDbPolyFaceMeshVertex
 10
14.0
 20
19.2
 30
101.6448453640101
 70
192
  0
VERTEX
  5
1D5
330
17
100
AcDbEntity
  8
MAUER_RECHTS
100
AcDbVertex
100
AcDbPolyFaceMeshVertex
 10
14.0
 20
18.8
 30
99.1448453640101
 70
192
  0
VERTEX
  5
1D7
330
17
100
AcDbEntity
  8
MAUER_RECHTS
100
AcDbVertex
100
AcDbPolyFaceMeshVertex
 10
34.0
 20
18.8
 30
99.1448453640101
 70
192
  0
VERTEX
  5
1DD
330
17
100
AcDbEntity
  8
MAUER_RECHTS
100
AcDbVertex
100
AcDbPolyFaceMeshVertex
 10
14.0
 20
19.2
 30
99.1448453640101
 70
192
  0
VERTEX
  5
1E4
330
17
100
AcDbEntity
  8
MAUER_RECHTS
100
AcDbVertex
100
AcDbPolyFaceMeshVertex
 10
34.0
 20
19.2
 30
101.6448453640101
 70
192
  0
VERTEX
  5
1E7
330
17
100
AcDbEntity
  8
MAUER_RECHTS
100
AcDbVertex
100
AcDbPolyFaceMeshVertex
 10
34.0
 20
18.8
 30
101.6448453640101
 70
192
  0
VERTEX
  5
1F3
330
17
100
AcDbEntity
  8
MAUER_RECHTS
100
AcDbVertex
100
AcDbPolyFaceMeshVertex
 10
34.0
 20
19.2
 30
99.1448453640101
 70
192
  0
VERTEX
  5
1D6
330
17
100
AcDbEntity
  8
MAUER_RECHTS
100
AcDbFaceRecord
 10
0.0
 20
0.0
 30
0.0
 70
128
 71
1
 72
2
 73
3
  0
VERTEX
  5
1DA
330
17
100
AcDbEntity
  8
MAUER_RECHTS
100
AcDbFaceRecord
 10
0.0
 20
0.0
 30
0.0
 70
128
 71
4
 72
1
 73
3
  0
VERTEX
  5
1DE
330
17
100
AcDbEntity
  8
MAUER_RECHTS
100
AcDbFaceRecord
 10
0.0
 20
0.0
 30
0.0
 70
128
 71
3
 72
2
 73
5
  0
VERTEX
  5
1E2
330
17
100
AcDbEntity
  8
MAUER_RECHTS
100
AcDbFaceRecord
 10
0.0
 20
0.0
 30
0.0
 70
128
 71
5
 72
4
 73
3
  0
VERTEX
  5
1E6
330
17
100
AcDbEntity
  8
MAUER_RECHTS
100
AcDbFaceRecord
 10
0.0
 20
0.0
 30
0.0
 70
128
 71
1
 72
6
 73
2
  0
VERTEX
  5
1EA
330
17
100
AcDbEntity
  8
MAUER_RECHTS
100
AcDbFaceRecord
 10
0.0
 20
0.0
 30
0.0
 70
128
 71
7
 72
1
 73
4
  0
VERTEX
  5
1EE
330
17
100
AcDbEntity
  8
MAUER_RECHTS
100
AcDbFaceRecord
 10
0.0
 20
0.0
 30
0.0
 70
128
 71
7
 72
6
 73
1
  0
VERTEX
  5
1F2
330
17
100
AcDbEntity
  8
MAUER_RECHTS
100
AcDbFaceRecord
 10
0.0
 20
0.0
 30
0.0
 70
128
 71
2
 72
6
 73
5
  0
VERTEX
  5
1F6
330
17
100
AcDbEntity
  8
MAUER_RECHTS
100
AcDbFaceRecord
 10
0.0
 20
0.0
 30
0.0
 70
128
 71
8
 72
4
 73
5
  0
VERTEX
  5
1FA
330
17
100
AcDbEntity
  8
MAUER_RECHTS
100
AcDbFaceRecord
 10
0.0
 20
0.0
 30
0.0
 70
128
 71
5
 72
6
 73
8
  0
VERTEX
  5
1FE
330
17
100
AcDbEntity
  8
MAUER_RECHTS
100
AcDbFaceRecord
 10
0.0
 20
0.0
 30
0.0
 70
128
 71
8
 72
7
 73
4
  0
VERTEX
  5
202
330
17
100
AcDbEntity
  8
MAUER_RECHTS
100
AcDbFaceRecord
 10
0.0
 20
0.0
 30
0.0
 70
128
 71
6
 72
7
 73
8
  0
SEQEND
  5
1D2
330
1D1
100
AcDbEntity
  8
MAUER_RECHTS
  0
POLYLINE
  5
203
330
17
100
AcDbEntity
  8
PFEILER_MITTE
100
AcDbPolyFaceMesh
 66
1
 10
0.0
 20
0.0
 30
0.0
 70
64
 71
8
 72
12
  0
VERTEX
  5
205
330
17
100
AcDbEntity
  8
PFEILER_MITTE
100
AcDbVertex
100
AcDbPolyFaceMeshVertex
 10
29.4
 20
13.5
 30
101.69795973682857
 70
192
  0
VERTEX
  5
206
330
17
100
AcDbEntity
  8
PFEILER_MITTE
100
AcDbVertex
100
AcDbPolyFaceMeshVertex
 10
29.4
 20
16.5
 30
101.69795973682857
 70
192
  0
VERTEX
  5
207
330
17
100
AcDbEntity
  8
PFEILER_MITTE
100
AcDbVertex
100
AcDbPolyFaceMeshVertex
 10
29.4
 20
13.5
 30
97.69795973682857
 70
192
  0
VERTEX
  5
209
330
17
100
AcDbEntity
  8
PFEILER_MITTE
100
AcDbVertex
100
AcDbPolyFaceMeshVertex
 10
30.6
 20
13.5
 30
97.69795973682857
 70
192
  0
VERTEX
  5
20F
330
17
100
AcDbEntity
  8
PFEILER_MITTE
100
AcDbVertex
100
AcDbPolyFaceMeshVertex
 10
29.4
 20
16.5
 30
97.69795973682857
 70
192
  0
VERTEX
  5
216
330
17
100
AcDbEntity
  8
PFEILER_MITTE
100
AcDbVertex
100
AcDbPolyFaceMeshVertex
 10
30.6
 20
16.5
 30
101.69795973682857
 70
192
  0
VERTEX
  5
219
330
17
100
AcDbEntity
  8
PFEILER_MITTE
100
AcDbVertex
100
AcDbPolyFaceMeshVertex
 10
30.6
 20
13.5
 30
101.69795973682857
 70
192
  0
VERTEX
  5
225
330
17
100
AcDbEntity
  8
PFEILER_MITTE
100
AcDbVertex
100
AcDbPolyFaceMeshVertex
 10
30.6
 20
16.5
 30
97.69795973682857
 70
192
  0
VERTEX
  5
208
330
17
100
AcDbEntity
  8
PFEILER_MITTE
100
AcDbFaceRecord
 10
0.0
 20
0.0
 30
0.0
 70
128
 71
1
 72
2
 73
3
  0
VERTEX
  5
20C
330
17
100
AcDbEntity
  8
PFEILER_MITTE
100
AcDbFaceRecord
 10
0.0
 20
0.0
 30
0.0
 70
128
 71
4
 72
1
 73
3
  0
VERTEX
  5
210
330
17
100
AcDbEntity
  8
PFEILER_MITTE
100
AcDbFaceRecord
 10
0.0
 20
0.0
 30
0.0
 70
128
 71
3
 72
2
 73
5
  0
VERTEX
  5
214
330
17
100
AcDbEntity
  8
PFEILER_MITTE
100
AcDbFaceRecord
 10
0.0
 20
0.0
 30
0.0
 70
128
 71
5
 72
4
 73
3
  0
VERTEX
  5
218
330
17
100
AcDbEntity
  8
PFEILER_MITTE
100
AcDbFaceRecord
 10
0.0
 20
0.0
 30
0.0
 70
128
 71
1
 72
6
 73
2
  0
VERTEX
  5
21C
330
17
100
AcDbEntity
  8
PFEILER_MITTE
100
AcDbFaceRecord
 10
0.0
 20
0.0
 30
0.0
 70
128
 71
7
 72
1
 73
4
  0
VERTEX
  5
220
330
17
100
AcDbEntity
  8
PFEILER_MITTE
100
AcDbFaceRecord
 10
0.0
 20
0.0
 30
0.0
 70
128
 71
7
 72
6
 73
1
  0
VERTEX
  5
224
330
17
100
AcDbEntity
  8
PFEILER_MITTE
100
AcDbFaceRecord
 10
0.0
 20
0.0
 30
0.0
 70
128
 71
2
 72
6
 73
5
  0
VERTEX
  5
228
330
17
100
AcDbEntity
  8
PFEILER_MITTE
100
AcDbFaceRecord
 10
0.0
 20
0.0
 30
0.0
 70
128
 71
8
 72
4
 73
5
  0
VERTEX
  5
22C
330
17
100
AcDbEntity
  8
PFEILER_MITTE
100
AcDbFaceRecord
 10
0.0
 20
0.0
 30
0.0
 70
128
 71
5
 72
6
 73
8
  0
VERTEX
  5
230
330
17
100
AcDbEntity
  8
PFEILER_MITTE
100
AcDbFaceRecord
 10
0.0
 20
0.0
 30
0.0
 70
128
 71
8
 72
7
 73
4
  0
VERTEX
  5
234
330
17
100
AcDbEntity
  8
PFEILER_MITTE
100
AcDbFaceRecord
 10
0.0
 20
0.0
 30
0.0
 70
128
 71
6
 72
7
 73
8
  0
SEQEND
  5
204
330
203
100
AcDbEntity
  8
PFEILER_MITTE
  0
POLYLINE
  5
235
330
17
100
AcDbEntity
  8
PFEILER_RAND
100
AcDbPolyFaceMesh
 66
1
 10
0.0
 20
0.0
 30
0.0
 70
64
 71
8
 72
12
  0
VERTEX
  5
237
330
17
100
AcDbEntity
  8
PFEILER_RAND
100
AcDbVertex
100
AcDbPolyFaceMeshVertex
 10
29.5
 20
20.5
 30
101.64795973682855
 70
192
  0
VERTEX
  5
238
330
17
100
AcDbEntity
  8
PFEILER_RAND
100
AcDbVertex
100
AcDbPolyFaceMeshVertex
 10
29.5
 20
21.5
 30
101.64795973682855
 70
192
  0
VERTEX
  5
239
330
17
100
AcDbEntity
  8
PFEILER_RAND
100
AcDbVertex
100
AcDbPolyFaceMeshVertex
 10
29.5
 20
20.5
 30
98.14795973682855
 70
192
  0
VERTEX
  5
23B
330
17
100
AcDbEntity
  8
PFEILER_RAND
100
AcDbVertex
100
AcDbPolyFaceMeshVertex
 10
30.5
 20
20.5
 30
98.14795973682855
 70
192
  0
VERTEX
  5
241
330
17
100
AcDbEntity
  8
PFEILER_RAND
100
AcDbVertex
100
AcDbPolyFaceMeshVertex
 10
29.5
 20
21.5
 30
98.14795973682855
 70
192
  0
VERTEX
  5
248
330
17
100
AcDbEntity
  8
PFEILER_RAND
100
AcDbVertex
100
AcDbPolyFaceMeshVertex
 10
30.5
 20
21.5
 30
101.64795973682855
 70
192
  0
VERTEX
  5
24B
330
17
100
AcDbEntity
  8
PFEILER_RAND
100
AcDbVertex
100
AcDbPolyFaceMeshVertex
 10
30.5
 20
20.5
 30
101.64795973682855
 70
192
  0
VERTEX
  5
257
330
17
100
AcDbEntity
  8
PFEILER_RAND
100
AcDbVertex
100
AcDbPolyFaceMeshVertex
 10
30.5
 20
21.5
 30
98.14795973682855
 70
192
  0
VERTEX
  5
23A
330
17
100
AcDbEntity
  8
PFEILER_RAND
100
AcDbFaceRecord
 10
0.0
 20
0.0
 30
0.0
 70
128
 71
1
 72
2
 73
3
  0
VERTEX
  5
23E
330
17
100
AcDbEntity
  8
PFEILER_RAND
100
AcDbFaceRecord
 10
0.0
 20
0.0
 30
0.0
 70
128
 71
4
 72
1
 73
3
  0
VERTEX
  5
242
330
17
100
AcDbEntity
  8
PFEILER_RAND
100
AcDbFaceRecord
 10
0.0
 20
0.0
 30
0.0
 70
128
 71
3
 72
2
 73
5
  0
VERTEX
  5
246
330
17
100
AcDbEntity
  8
PFEILER_RAND
100
AcDbFaceRecord
 10
0.0
 20
0.0
 30
0.0
 70
128
 71
5
 72
4
 73
3
  0
VERTEX
  5
24A
330
17
100
AcDbEntity
  8
PFEILER_RAND
100
AcDbFaceRecord
 10
0.0
 20
0.0
 30
0.0
 70
128
 71
1
 72
6
 73
2
  0
VERTEX
  5
24E
330
17
100
AcDbEntity
  8
PFEILER_RAND
100
AcDbFaceRecord
 10
0.0
 20
0.0
 30
0.0
 70
128
 71
7
 72
1
 73
4
  0
VERTEX
  5
252
330
17
100
AcDbEntity
  8
PFEILER_RAND
100
AcDbFaceRecord
 10
0.0
 20
0.0
 30
0.0
 70
128
 71
7
 72
6
 73
1
  0
VERTEX
  5
256
330
17
100
AcDbEntity
  8
PFEILER_RAND
100
AcDbFaceRecord
 10
0.0
 20
0.0
 30
0.0
 70
128
 71
2
 72
6
 73
5
  0
VERTEX
  5
25A
330
17
100
AcDbEntity
  8
PFEILER_RAND
100
AcDbFaceRecord
 10
0.0
 20
0.0
 30
0.0
 70
128
 71
8
 72
4
 73
5
  0
VERTEX
  5
25E
330
17
100
AcDbEntity
  8
PFEILER_RAND
100
AcDbFaceRecord
 10
0.0
 20
0.0
 30
0.0
 70
128
 71
5
 72
6
 73
8
  0
VERTEX
  5
262
330
17
100
AcDbEntity
  8
PFEILER_RAND
100
AcDbFaceRecord
 10
0.0
 20
0.0
 30
0.0
 70
128
 71
8
 72
7
 73
4
  0
VERTEX
  5
266
330
17
100
AcDbEntity
  8
PFEILER_RAND
100
AcDbFaceRecord
 10
0.0
 20
0.0
 30
0.0
 70
128
 71
6
 72
7
 73
8
  0
SEQEND
  5
236
330
235
100
AcDbEntity
  8
PFEILER_RAND
  0
POLYLINE
  5
267
330
17
100
AcDbEntity
  8
WEHRKOERPER
100
AcDbPolyFaceMesh
 66
1
 10
0.0
 20
0.0
 30
0.0
 70
64
 71
8
 72
12
  0
VERTEX
  5
269
330
17
100
AcDbEntity
  8
WEHRKOERPER
100
AcDbVertex
100
AcDbPolyFaceMeshVertex
 10
15.25
 20
11.0
 30
99.69795973682855
 70
192
  0
VERTEX
  5
26A
330
17
100
AcDbEntity
  8
WEHRKOERPER
100
AcDbVertex
100
AcDbPolyFaceMeshVertex
 10
15.25
 20
19.0
 30
99.69795973682855
 70
192
  0
VERTEX
  5
26B
330
17
100
AcDbEntity
  8
WEHRKOERPER
100
AcDbVertex
100
AcDbPolyFaceMeshVertex
 10
15.25
 20
11.0
 30
98.09795973682856
 70
192
  0
VERTEX
  5
26D
330
17
100
AcDbEntity
  8
WEHRKOERPER
100
AcDbVertex
100
AcDbPolyFaceMeshVertex
 10
16.75
 20
11.0
 30
98.09795973682856
 70
192
  0
VERTEX
  5
273
330
17
100
AcDbEntity
  8
WEHRKOERPER
100
AcDbVertex
100
AcDbPolyFaceMeshVertex
 10
15.25
 20
19.0
 30
98.09795973682856
 70
192
  0
VERTEX
  5
27A
330
17
100
AcDbEntity
  8
WEHRKOERPER
100
AcDbVertex
100
AcDbPolyFaceMeshVertex
 10
16.75
 20
19.0
 30
99.69795973682855
 70
192
  0
VERTEX
  5
27D
330
17
100
AcDbEntity
  8
WEHRKOERPER
100
AcDbVertex
100
AcDbPolyFaceMeshVertex
 10
16.75
 20
11.0
 30
99.69795973682855
 70
192
  0
VERTEX
  5
289
330
17
100
AcDbEntity
  8
WEHRKOERPER
100
AcDbVertex
100
AcDbPolyFaceMeshVertex
 10
16.75
 20
19.0
 30
98.09795973682856
 70
192
  0
VERTEX
  5
26C
330
17
100
AcDbEntity
  8
WEHRKOERPER
100
AcDbFaceRecord
 10
0.0
 20
0.0
 30
0.0
 70
128
 71
1
 72
2
 73
3
  0
VERTEX
  5
270
330
17
100
AcDbEntity
  8
WEHRKOERPER
100
AcDbFaceRecord
 10
0.0
 20
0.0
 30
0.0
 70
128
 71
4
 72
1
 73
3
  0
VERTEX
  5
274
330
17
100
AcDbEntity
  8
WEHRKOERPER
100
AcDbFaceRecord
 10
0.0
 20
0.0
 30
0.0
 70
128
 71
3
 72
2
 73
5
  0
VERTEX
  5
278
330
17
100
AcDbEntity
  8
WEHRKOERPER
100
AcDbFaceRecord
 10
0.0
 20
0.0
 30
0.0
 70
128
 71
5
 72
4
 73
3
  0
VERTEX
  5
27C
330
17
100
AcDbEntity
  8
WEHRKOERPER
100
AcDbFaceRecord
 10
0.0
 20
0.0
 30
0.0
 70
128
 71
1
 72
6
 73
2
  0
VERTEX
  5
280
330
17
100
AcDbEntity
  8
WEHRKOERPER
100
AcDbFaceRecord
 10
0.0
 20
0.0
 30
0.0
 70
128
 71
7
 72
1
 73
4
  0
VERTEX
  5
284
330
17
100
AcDbEntity
  8
WEHRKOERPER
100
AcDbFaceRecord
 10
0.0
 20
0.0
 30
0.0
 70
128
 71
7
 72
6
 73
1
  0
VERTEX
  5
288
330
17
100
AcDbEntity
  8
WEHRKOERPER
100
AcDbFaceRecord
 10
0.0
 20
0.0
 30
0.0
 70
128
 71
2
 72
6
 73
5
  0
VERTEX
  5
28C
330
17
100
AcDbEntity
  8
WEHRKOERPER
100
AcDbFaceRecord
 10
0.0
 20
0.0
 30
0.0
 70
128
 71
8
 72
4
 73
5
  0
VERTEX
  5
290
330
17
100
AcDbEntity
  8
WEHRKOERPER
100
AcDbFaceRecord
 10
0.0
 20
0.0
 30
0.0
 70
128
 71
5
 72
6
 73
8
  0
VERTEX
  5
294
330
17
100
AcDbEntity
  8
WEHRKOERPER
100
AcDbFaceRecord
 10
0.0
 20
0.0
 30
0.0
 70
128
 71
8
 72
7
 73
4
  0
VERTEX
  5
298
330
17
100
AcDbEntity
  8
WEHRKOERPER
100
AcDbFaceRecord
 10
0.0
 20
0.0
 30
0.0
 70
128
 71
6
 72
7
 73
8
  0
SEQEND
  5
268
330
267
100
AcDbEntity
  8
WEHRKOERPER
  0
LWPOLYLINE
  5
299
330
17
100
AcDbEntity
  8
QS_OBERWASSER
100
AcDbPolyline
 90
2
 70
0
 10
10.0
 20
6.0
 10
10.0
 20
24.0
  0
LWPOLYLINE
  5
29A
330
17
100
AcDbEntity
  8
QS_UNTERWASSER
100
AcDbPolyline
 90
2
 70
0
 10
38.0
 20
6.0
 10
38.0
 20
24.0
  0
ENDSEC
  0
SECTION
  2
OBJECTS
  0
DICTIONARY
  5
A
330
0
100
AcDbDictionary
281
1
  3
ACAD_COLOR
350
B
  3
ACAD_GROUP
350
C
  3
ACAD_LAYOUT
350
D
  3
ACAD_MATERIAL
350
E
  3
ACAD_MLEADERSTYLE
350
F
  3
ACAD_MLINESTYLE
350
10
  3
ACAD_PLOTSETTINGS
350
11
  3
ACAD_PLOTSTYLENAME
350
12
  3
ACAD_SCALELIST
350
14
  3
ACAD_TABLESTYLE
350
15
  3
ACAD_VISUALSTYLE
350
16
  3
EZDXF_META
350
2D
  0
DICTIONARY
  5
B
330
A
100
AcDbDictionary
281
1
  0
DICTIONARY
  5
C
330
A
100
AcDbDictionary
281
1
  0
DICTIONARY
  5
D
330
A
100
AcDbDictionary
281
1
  3
Model
350
1A
  3
Layout1
350
1E
  0
DICTIONARY
  5
E
330
A
100
AcDbDictionary
281
1
  3
ByBlock
350
1F
  3
ByLayer
350
20
  3
Global
350
21
  0
DICTIONARY
  5
F
330
A
100
AcDbDictionary
281
1
  3
Standard
350
2C
  0
DICTIONARY
  5
10
330
A
100
AcDbDictionary
281
1
  3
Standard
350
22
  0
DICTIONARY
  5
11
330
A
100
AcDbDictionary
281
1
  0
ACDBDICTIONARYWDFLT
  5
12
330
A
100
AcDbDictionary
281
1
  3
Normal
350
13
100
AcDbDictionaryWithDefault
340
13
  0
ACDBPLACEHOLDER
  5
13
330
12
  0
DICTIONARY
  5
14
330
A
100
AcDbDictionary
281
1
  0
DICTIONARY
  5
15
330
A
100
AcDbDictionary
281
1
  0
DICTIONARY
  5
16
330
A
100
AcDbDictionary
281
1
  0
LAYOUT
  5
1A
330
D
100
AcDbPlotSettings
  1

  4
A3
  6

 40
7.5
 41
20.0
 42
7.5
 43
20.0
 44
420.0
 45
297.0
 46
0.0
 47
0.0
 48
0.0
 49
0.0
140
0.0
141
0.0
142
1.0
143
1.0
 70
1024
 72
1
 73
0
 74
5
  7

 75
16
 76
0
 77
2
 78
300
147
1.0
148
0.0
149
0.0
100
AcDbLayout
  1
Model
 70
1
 71
0
 10
0.0
 20
0.0
 11
420.0
 21
297.0
 12
0.0
 22
0.0
 32
0.0
 14
1e+20
 24
1e+20
 34
1e+20
 15
-1e+20
 25
-1e+20
 35
-1e+20
146
0.0
 13
0.0
 23
0.0
 33
0.0
 16
1.0
 26
0.0
 36
0.0
 17
0.0
 27
1.0
 37
0.0
 76
1
330
17
  0
LAYOUT
  5
1E
330
D
100
AcDbPlotSettings
  1

  4
A3
  6

 40
7.5
 41
20.0
 42
7.5
 43
20.0
 44
420.0
 45
297.0
 46
0.0
 47
0.0
 48
0.0
 49
0.0
140
0.0
141
0.0
142
1.0
143
1.0
 70
0
 72
1
 73
0
 74
5
  7

 75
16
 76
0
 77
2
 78
300
147
1.0
148
0.0
149
0.0
100
AcDbLayout
  1
Layout1
 70
1
 71
1
 10
0.0
 20
0.0
 11
420.0
 21
297.0
 12
0.0
 22
0.0
 32
0.0
 14
1e+20
 24
1e+20
 34
1e+20
 15
-1e+20
 25
-1e+20
 35
-1e+20
146
0.0
 13
0.0
 23
0.0
 33
0.0
 16
1.0
 26
0.0
 36
0.0
 17
0.0
 27
1.0
 37
0.0
 76
1
330
1B
  0
MATERIAL
  5
1F
102
{ACAD_REACTORS
330
E
102
}
330
E
100
AcDbMaterial
  1
ByBlock
  2

 70
0
 40
1.0
 71
1
 41
1.0
 91
-1023410177
 42
1.0
 72
1
  3

 73
1
 74
1
 75
1
 44
0.5
 73
0
 45
1.0
 46
1.0
 77
1
  4

 78
1
 79
1
170
1
 48
1.0
171
1
  6

172
1
173
1
174
1
140
1.0
141
1.0
175
1
  7

176
1
177
1
178
1
143
1.0
179
1
  8

270
1
271
1
272
1
145
1.0
146
1.0
273
1
  9

274
1
275
1
276
1
 42
1.0
 72
1
  3

 73
1
 74
1
 75
1
 94
63
  0
MATERIAL
  5
20
102
{ACAD_REACTORS
330
E
102
}
330
E
100
AcDbMaterial
  1
ByLayer
  2

 70
0
 40
1.0
 71
1
 41
1.0
 91
-1023410177
 42
1.0
 72
1
  3

 73
1
 74
1
 75
1
 44
0.5
 73
0
 45
1.0
 46
1.0
 77
1
  4

 78
1
 79
1
170
1
 48
1.0
171
1
  6

172
1
173
1
174
1
140
1.0
141
1.0
175
1
  7

176
1
177
1
178
1
143
1.0
179
1
  8

270
1
271
1
272
1
145
1.0
146
1.0
273
1
  9

274
1
275
1
276
1
 42
1.0
 72
1
  3

 73
1
 74
1
 75
1
 94
63
  0
MATERIAL
  5
21
102
{ACAD_REACTORS
330
E
102
}
330
E
100
AcDbMaterial
  1
Global
  2

 70
0
 40
1.0
 71
1
 41
1.0
 91
-1023410177
 42
1.0
 72
1
  3

 73
1
 74
1
 75
1
 44
0.5
 73
0
 45
1.0
 46
1.0
 77
1
  4

 78
1
 79
1
170
1
 48
1.0
171
1
  6

172
1
173
1
174
1
140
1.0
141
1.0
175
1
  7

176
1
177
1
178
1
143
1.0
179
1
  8

270
1
271
1
272
1
145
1.0
146
1.0
273
1
  9

274
1
275
1
276
1
 42
1.0
 72
1
  3

 73
1
 74
1
 75
1
 94
63
  0
MLINESTYLE
  5
22
102
{ACAD_REACTORS
330
10
102
}
330
10
100
AcDbMlineStyle
  2
Standard
 70
0
  3

 62
256
 51
90.0
 52
90.0
 71
2
 49
0.5
 62
256
  6
BYLAYER
 49
-0.5
 62
256
  6
BYLAYER
  0
MLEADERSTYLE
  5
2C
102
{ACAD_REACTORS
330
F
102
}
330
F
100
AcDbMLeaderStyle
179
2
170
2
171
1
172
0
 90
2
 40
0.0
 41
0.0
173
1
 91
-1056964608
 92
-2
290
1
 42
2.0
291
1
 43
8.0
  3
Standard
 44
4.0
300

342
29
174
1
175
1
176
0
178
1
 93
-1056964608
 45
4.0
292
0
297
0
 46
4.0
 94
-1056964608
 47
1.0
 49
1.0
140
1.0
294
1
141
0.0
177
0
142
1.0
295
0
296
0
143
3.75
271
0
272
9
273
9
  0
DICTIONARY
  5
2D
330
A
100
AcDbDictionary
280
1
281
1
  3
CREATED_BY_EZDXF
350
2E
  3
WRITTEN_BY_EZDXF
350
29D
  0
DICTIONARYVAR
  5
2E
330
2D
100
DictionaryVariables
280
0
  1
1.4.4 @ 2026-07-31T12:50:54.222775+00:00
  0
DICTIONARYVAR
  5
29D
330
2D
100
DictionaryVariables
280
0
  1
1.4.4 @ 2026-07-31T12:50:54.264793+00:00
  0
ENDSEC
  0
EOF
